<svg xmlns="http://www.w3.org/2000/svg" xmlns:xlink="http://www.w3.org/1999/xlink" viewBox="0 0 1892.6 1401.35"><defs><style>.cls-1,.cls-18,.cls-62{fill:none;}.cls-2{clip-path:url(#clip-path);}.cls-3{fill:#505080;}.cls-4{fill:#cce2ea;}.cls-5{fill:#02213f;}.cls-6{fill:#01203f;}.cls-65,.cls-7{fill:#fcfcfc;}.cls-8{fill:#adcad7;}.cls-9{fill:#b8d1dc;}.cls-10{fill:#fbfbfc;}.cls-11{fill:#d1d3d8;}.cls-12{fill:#d4d5d9;}.cls-13{fill:#e8ebec;}.cls-14{fill:#afcedb;}.cls-15{fill:#aecdda;}.cls-16{fill:#b0cfdb;}.cls-17{fill:#fff;}.cls-18{stroke:#16aed6;stroke-width:4px;}.cls-18,.cls-62{stroke-miterlimit:10;}.cls-19{font-size:20px;}.cls-19,.cls-40,.cls-65{font-family:SegoeUI-Semibold, Segoe UI;font-weight:600;}.cls-20{letter-spacing:-0.03em;}.cls-21{clip-path:url(#clip-path-2);}.cls-22{letter-spacing:0.03em;}.cls-23{letter-spacing:-0.01em;}.cls-24{letter-spacing:-0.01em;}.cls-25{letter-spacing:-0.03em;}.cls-26{letter-spacing:-0.01em;}.cls-27{letter-spacing:-0.03em;}.cls-28{letter-spacing:-0.04em;}.cls-29{letter-spacing:-0.1em;}.cls-30{letter-spacing:-0.03em;}.cls-31{letter-spacing:0.04em;}.cls-32{letter-spacing:0em;}.cls-33{letter-spacing:-0.01em;}.cls-34{letter-spacing:-0.03em;}.cls-35{letter-spacing:-0.03em;}.cls-36{letter-spacing:-0.01em;}.cls-37{letter-spacing:0.03em;}.cls-38{letter-spacing:0.03em;}.cls-39{letter-spacing:-0.03em;}.cls-40{font-size:18px;}.cls-41{letter-spacing:0.03em;}.cls-42{letter-spacing:-0.01em;}.cls-43{letter-spacing:-0.01em;}.cls-44{letter-spacing:-0.03em;}.cls-45{letter-spacing:0.01em;}.cls-46{letter-spacing:-0.03em;}.cls-47{fill:#16aed6;}.cls-48{fill:#12a7db;}.cls-49{opacity:0.44;}.cls-50{clip-path:url(#clip-path-34);}.cls-51{fill:#173339;}.cls-52{opacity:0.7;}.cls-53{clip-path:url(#clip-path-35);}.cls-54{fill:#75bfd8;}.cls-55{opacity:0.5;}.cls-56{clip-path:url(#clip-path-36);}.cls-57{opacity:0.4;}.cls-58{clip-path:url(#clip-path-37);}.cls-59{fill:#ffe91f;}.cls-60{clip-path:url(#clip-path-38);}.cls-61{clip-path:url(#clip-path-39);}.cls-62{stroke:#ffe91f;stroke-width:6px;}.cls-63{clip-path:url(#clip-path-40);}.cls-64{clip-path:url(#clip-path-41);}.cls-65{font-size:27.81px;}.cls-66{letter-spacing:-0.08em;}.cls-67{letter-spacing:-0.01em;}.cls-68{letter-spacing:0em;}.cls-69{letter-spacing:-0.01em;}.cls-70{letter-spacing:0.03em;}.cls-71{letter-spacing:-0.01em;}.cls-72{letter-spacing:-0.03em;}.cls-73{clip-path:url(#clip-path-43);}.cls-74{fill:#ffe424;}.cls-75{fill:#fafafa;}</style><clipPath id="clip-path" transform="translate(15 26.54)"><rect class="cls-1" width="1859.64" height="1360.99"/></clipPath><clipPath id="clip-path-2" transform="translate(15 26.54)"><rect class="cls-1" width="1555.3" height="1360.99"/></clipPath><clipPath id="clip-path-34" transform="translate(15 26.54)"><rect class="cls-1" x="552.41" y="620.99" width="2.09" height="0.95"/></clipPath><clipPath id="clip-path-35" transform="translate(15 26.54)"><rect class="cls-1" x="739.11" y="749.77" width="147.82" height="293.34"/></clipPath><clipPath id="clip-path-36" transform="translate(15 26.54)"><rect class="cls-1" x="837.42" y="1055.41" width="47.02" height="111.61"/></clipPath><clipPath id="clip-path-37" transform="translate(15 26.54)"><rect class="cls-1" x="889.91" y="220.87" width="40.24" height="92.2"/></clipPath><clipPath id="clip-path-38" transform="translate(15 26.54)"><rect class="cls-1" x="507.63" y="664.19" width="46.58" height="42.84"/></clipPath><clipPath id="clip-path-39" transform="translate(15 26.54)"><rect class="cls-1" x="700.92" y="614.61" width="69.22" height="101.24"/></clipPath><clipPath id="clip-path-40" transform="translate(15 26.54)"><rect class="cls-1" x="712.06" y="313.1" width="54.11" height="54.11"/></clipPath><clipPath id="clip-path-41" transform="translate(15 26.54)"><rect class="cls-1" x="737.24" y="410.04" width="55.62" height="30.19"/></clipPath><clipPath id="clip-path-43" transform="translate(15 26.54)"><rect class="cls-1" x="753.9" y="613.77" width="44.62" height="65.5"/></clipPath></defs><g id="Layer_2" data-name="Layer 2"><g id="Layer_1-2" data-name="Layer 1"><g class="cls-2"><path class="cls-3" d="M949.85,15.83l-.12-.13Z" transform="translate(15 26.54)"/><polygon class="cls-4" points="573.34 1387.53 590.62 1387.53 572.91 1373.25 573.34 1387.53"/><path class="cls-4" d="M474.59,648.3c-9.11-3.83-14.36-16.07-22.92-20.86-4-2.21-7.48-4.42-12.23-4.44-3.54,0-6.34-2.67-9.72-4.2.57-3.34,1.24-6.67,3-9.58,4.14-6.69,4.32-14.34,5.7-21.74,1.61-8.66,1.34-17.58,3.75-26.12,2.7-9.54,7.46-23.17,17.06-27,1.57,0,11.44,2.1,12.09.13.62-.08,8.48-10.18,9.1-10.17,6.69,0,26.74-5.31,32.52-10,.62-.08,3.37,4,4,4,1.58,0-.6,10.24.06,8.25.62-.08-.1,12.85.53,12.86,2.93-.11.24,7.65,1.19,10.46,2.09,6.15,7.24,5.07,4.51,8.09.12,4.52,2.92,14.73,3.41,18.3,1.77,12.9-3.59,17.51-6.32,30.55-1.1,5.22,2.84,13.93,5.3,17.7,3.63,5.59-11.83,29.38-12.47,34.17-1.11,8.37-11.24,19-16.1,25.25-.5.64-10.49-33.2-11.77-33.16l-2.16-.5c-.25-1.07.66,1.66-.43,1.52-.62,0-3.25.94-3.86.84-.21-1.07-3.21-4.13-4.28-4.29" transform="translate(15 26.54)"/><path class="cls-5" d="M553,496.13c.49.15,3.85,1.42,4.12,1a3.07,3.07,0,0,0,2.81-1.85c2,.23,2.85-.85,4.43-2.25,5-4.48,38.18-26.84,44.81-30.68,9.63-5.57,22.51-12.5,31.49-19.12,3.7-1.2,8.1-2,10.55-5.22l5.79-2.89c2.31.4,1.24,3.83,4,4.82,12.25,12.89,24.54,26.22,37.31,39.08,6.37,6.42,9.93,13.57,10.36,22.59.17,3.36,1.58,6.66,2.47,10.17,4.93,1.1,9.68,1,14.42,1,.32.56,2.34,1.8,3.64,2.86.65,7.93,8.58,18,6.3,25.36-3.89,0-10.09.95-13,4.09,5.24,20.43,10.32,40.85,15.79,61.17a18.68,18.68,0,0,1-1.1,13.81c-9.37,19.92-18.38,40-27.63,60-4.52,9.79-9.27,19.47-14,29.39-20-.92-39.49-.42-59-1.49-21.76-1.2-43.61-1.13-65.42-.9-8.33.08-16.53-2.23-24.86-.77l-9.79-8.7c-2.59-3-12.25-10.91-10.67-13.67,3.75-6.54,13-7.75,15.45-14.91-4.55-5.34-4.27-8.29-9.4-11.94-4.66-3.33-7.61-6.64-7.55-13,.09-9.17-1.2-18.36-1.9-27.54-.48-10.41-.2-20.81-.94-31.26-1.18-16.56-2.33-33.13-4-49.64-.77-7.53-3.12-14,1.85-18.27,2.41-2,8.58-4,11.26-5.74,7.73-5.07,15.25-9.54,22.45-15.45" transform="translate(15 26.54)"/><path class="cls-6" d="M1877.6-26.54s-2.21,984.16-2.21,1400.29c-124.6,0-705.08.21-722.69.17-8.5-7.44-9.87-20.62-11.91-31-.25-1.26-.52-2.52-.71-3.78-.54-3.59-2.57-5.64-6.19-6.51-7.56-1.83-15-4-22.9-4.36-16.23-.67-32.45-1.81-48.66-2.92-6.29-.44-12.06,0-17.7,3.54-5.13,3.22-10.53,6.31-16.78,8a38.36,38.36,0,0,1-3-3.79q-43.27-69.66-86.45-139.38a33,33,0,0,1-3.47-7.88c-2.19-7.36-4.13-14.79-6.11-22.21Q897.35,1046.47,866,929.33q-21.75-81.52-43.2-163.12c-17.74-67-36.07-133.9-56.62-200.16q-5.34-17.2-10.67-34.37l-16.84,3.86-.36-.52a2,2,0,0,0-1.15-2.43l-5.13-19c3.32-4.17,8.71-4,13.13-5.65,6.36-2.31,9.83-6.24,12.37-12.27,7.92-18.88,16.24-37.61,24.69-56.28,2.35-5.18,3-9.72,1-15.38-12.47-34.26-23.6-68.93-31.55-104.53-1.82-8.14-17.07-25.9-13.72-33.55,1.69-.89,8.79-14.54,10.56-15.23,11.58-4.49,21.91,5,30.28-4.06,12.39-13.39,17.59-21.17,30-34.59,1.68-1.83,12.43-4,11.79-6.38a10.77,10.77,0,0,1,2.46-2.43c7,.14,7.55-4.15,8.51-10.28.31-1.93,5.23-1.79,6.16-2.72,4.5-2.83,1-4.87,3.82-4.82,2.46-1.83,5.4-2.36,5.07-5.79,9-8,190.07-226.19,190.07-226.19Z" transform="translate(15 26.54)"/><path class="cls-4" d="M-15,390.6V-26H1030.56c1.12,3.21-1.1,5.55-2.28,8.05-6.67,14.15-13.73,28.13-20.2,42.37A50,50,0,0,1,997,39.86c-12.43,12.07-24.6,24.4-37,36.46-3.59,3.49-6.1,7.22-6.77,12.29-.86,6.54-4.24,11.66-8.78,16.55-18.52,20-36.65,40.28-55,60.41-2,2.23-3.49,4.2-2.87,7.59,1.44,7.85,1.87,15.9,3.71,23.63,1.68,7.07,2,19.77,3,21.13,4.15.77,7.15.93,9.27,1.4.33,1.69.13,3.79.26,7.1-2.67-1.71-5.13-4.21-8.05-5-5.93-1.55-7.25-5.54-7-10.66.31-7.34-2.63-13.76-6.17-19.7-4.1-6.89-10.5-10.62-18.88-11.1-5.73-.33-10,1.91-14.83,4.56-1.06.17-7,7.17-10.33,9-6.81,22.5-23.6,27-28,32.76-5.35,7-85.26,70.11-85.76,73.19-14.37,10.74-21.67,26.48-28.43,42.12-7.92,18.33-16,36.5-26.29,53.63-3,5.06,4.47,11.41-1.56,14.07-2.54,1.12-2.59,24-2.81,27.24-5.78-.1-71.14,39.53-79.54,44.56-3.25,1.94-21.28,13.51-31.47,18.34C549.9,502.19,531.18,515.8,529,516c-6.54,4-10.05,6.13-12.32,11.45-5,3.9-9-21.4-13.16-16.62-1.45,1.65-3.14,3.59-5.1,4.24-9.89,3.29-19.73,6.89-30.19,8-18.75,2-35.35,16.57-39.54,34.87a154.33,154.33,0,0,0-3.75,25.29c-.19,3.28-.8,6.17-3.27,8.46-1.83-1-3.82-.83-5.65-1.27-8.14-1.93-16.54-1.06-24.66-2.39A269.43,269.43,0,0,0,364,584.89c-8.59-.51-17.1-1.83-25.63-2.62-13-1.2-25.78-3.64-38.87-3.39-.71-1.88-2.21-1.85-3.81-1.59L284,577c-5.26-3.09-12.07-1.16-17.39-5.55,2.82-8.13,1.87-16.77,1.84-25.34,0-7.18-2.72-9.34-10-9.63-3.55-.14-6.82.88-9.9,1.84-3.4-2.62-4.31-5.91-4.93-9.41-1.75-10.06-3.19-20.2-2.12-30.48a38.1,38.1,0,0,0,0-7.7c-.75-7.57-1.06-15.17-9.64-19.19-3.26-1.52-5.1-4.9-6-9.19-2.47-11.47-3.81-23.11-5.14-34.67s-3.33-23.2-4.53-34.88c-1.61-15.68-5.39-31.13-7.13-46.81-1.54-13.85-3.39-27.62-5.86-41.32-1.35-7.44.17-9.81,7-12.59,8.24-3.36,16.56-6.54,24.61-10.31,19.3-9,39.2-16.58,58.79-24.9,11.91-5.06,45.75-27.93,52.28-28.56l3.6-7.67c4.4.44,4.42,10.49,5.78,14.33,3.28,9.25,7.34,18.32,8.93,28.09,1.95,12,3.56,24.59-2.92,35.54-2.51,4.23-13.81,61.7-11.6,62.61,0,10.9,1.52,21.64,1.55,32.54.58,3.24-.54,7.26,3,9.93,0,2.55.24,5.31.26,7.85.57,3.24.14,6.69,3.66,9.37,0,1.9-4.5,3.84-4.48,5.74a2.16,2.16,0,0,0,1.81,2c.81,3.82,0,5.3,3.77,8.64.07,1.57,1.27-2.28,3.24-1.66.6,1.9-.28,4.68,1.29,4.81.3,1.32,2.83-2.6,3.13-3.91,6.61-.54,5.94,4.17,5.91-.16a2.16,2.16,0,0,0-1.81-2c0-.63,0-1.26,0-1.89l0-1.93-.06-3.78a2.15,2.15,0,0,0-1.81-2c0-.63,0-1.26,0-1.89l0-1.93c0-2.55-.05-5.09-.07-7.64.06-1.61.27-3.3-1.8-3.95l0-1.89c0-1.93,0-3.86-.05-5.79s0-3.81-.05-5.71c0-4.81-3.26-8.36-3.25-13.16,0-8.65.92-16,0-24.51-.95-8.75,1.35-136.63,0-146.3a93.52,93.52,0,0,0,13.2-7.91q20.28-16,39.2-33.49a46.41,46.41,0,0,0,7-9c3.5-5.38,1.8-9.08-4.41-10.26-3.2-.6-5.44.8-7.61,3-6,6.16-12.38,11.94-19,17.5-12.45,10.4-24.81,20.92-37.2,31.39-23.33,19.7-49.5,33.91-78,44.59-27.08,10.13-53.32,22.37-79.59,34.45,3.93,5.13-9.86,7.46-15.51,7.59l-9,7.93C169,297,47.35,352.83,42.91,362.14c-.6.05-4,1.15-4.59,1.16-1.11.11-29.42,13.86-29.68,14.94C2.2,380.79-7.51,390.66-15,390.6" transform="translate(15 26.54)"/><path class="cls-4" d="M-15,946.86v-183c2.91,1,55,4.46,60.27,4.77,5.56.33,11.27.57,16.91,1,16.14-1.3,29-4,45.14-4.87.66,0,6.23.66,6.89.64,5.77,0,13.38.21,19.15.25-.88,5.2,6.37,15.07,5.84,20.3-1.43,14.05-5.46,28.54-5.57,42.56,0,5.41,3.63,8.84,8.11,8.53,4-.28,7-3.59,7.16-8.54.15-5.39-1.09-10.73-1.5-16-1-13.6-8.11-27.9-2.32-40.93,4.83-1.76,9.84-1.93,14.92-1.85,9.79.16,19.57-8.61,29.23-6.4,6,0,42-1.53,47-1.53,3.46,1.62,15.22,107.88,18.89,108.08,10.4,11.89,1.62,21.35,15.13,16.46s26.86-9.67,40.24-14.63c11.8-4.37,23.33-10.26,34.68-15.81,1-.15,2.32,1.7,2.56.66,1.85-.12,7.72-9.71,9.56-9.83,6.62,1.39,8.59-4.43,13.79-7,14.32-7.12,24.27-16.59,38.55-23.79,5.46-2.75,9.1,1.61,11.36-3.87,4.18-2.49,6.51-8.23,12.43-7.56s11.52-.94,16.83-2.57c4.81-1.46,9.42-1.2,14.14-1.43a11.69,11.69,0,0,1,10,4.64c11.69,14.62,16.66,31.74,17.85,50,1.37,21,.44,46.39-.28,67.35-1.65.52,1.62,13,1.4,14.56-2,14.29-15.46,11.1-19.76,24.6-2.1,6.59-6.22,12.57-6.4,19.76l0,.1a2.16,2.16,0,0,0-1.76,2.07A108.2,108.2,0,0,0,460.92,994c-3.26,8.92-6.55,18-11.26,26.18-7.53,13.1-16.66,28.16-25,41.09-2.88-1.52-73.66-41.2-76.93-41.39a2.18,2.18,0,0,0-2-1.74c-.78-2.12-3-2.49-4.61-3.07-17.63-6.16-35.34-12.07-53-18.2a11.7,11.7,0,0,0-8.09-.23,18.46,18.46,0,0,1-10.41-.23c-23.7-7.53-48.45-8.94-72.78-12.75-14.37-2.25-28.88-3.57-43.28-5.72-23.8-3.56-46.92-10.12-70.46-14.81-13-2.6-25.91-5.64-38.85-8.57-9.29-2.12-18.76-2.87-28.18-4.11C5.76,949.06-4.45,946.59-15,946.86" transform="translate(15 26.54)"/><path class="cls-4" d="M-15,1373.66V1180c3.23-1.38,1.58-4.48,2.29-6.72,9-28.36,16.77-57.35,24.68-86,5.77-.08,11.58-2.25,17.35-2.33,2.11,0,4.08.59,5.42-2.17,4.09-.4,5.44-10.35,9.64-11.37,19.47-4.72,41.44,1.79,59.78-6.06,7.9-3.38,15.39-5.54,23.69-2.8,6.57,2.17,14.49-.09,20,4.61,3.89,3.31,11,4.67,15.5,6.13,11.74,3.79,22.47,5.76,33.87,10.41,15.51,6.34,26.92,18.81,39,30.36,7.41,7.12,14.8,14.27,21.82,21.76,4.95,5.27,10.39,9.67,17.51,11a12.64,12.64,0,0,1,9.13,6.34c6.88,12.24,16.51,22.56,23.82,34.52,2.49,4.08,2.56,6.11-.32,9.87-13.34,17.4-26.53,34.92-38.5,53.33-7.28,11.19-14.29,22.77-23.11,32.69-14.84,16.68-31.5,31.58-51.69,42.79-3.57-4.79-7.16-9.55-10.72-14.34-9.28-12.52-17.81-25.59-29.12-36.54-8.16-7.89-17.8-8.72-27.46-5.42-11.1,3.78-21.62,9.25-32.42,13.93-12.85,5.57-12.68,21.4-2.32,15.66,11.72-6.48,24.78-10,36.72-16.1,5.85-3,12.37-2.84,17.36,3.15,2.87,3.44,6.48,6.29,9.21,9.82,7.39,9.54,14.44,19.34,21.71,29,5.67,7.5,5.46,9.07-2.29,14a21.6,21.6,0,0,1-2.3,1.73c-16.2,7.48-32.15,15.61-48.74,22.1a53.17,53.17,0,0,0-17.28,10.65Z" transform="translate(15 26.54)"/><path class="cls-4" d="M-15,571.19v-171c2.66-.07,36.74-18,37-19.11l62.38-33.36c5.69,0,103.87-43.51,103.69-46.87,2.5.59,4.41-2.82,7.57-.82-.27,4.86,1.92,9.5,2.35,14.66.85,10.38,3,20.64,4.11,31,1.32,11.92,3.89,23.7,5.16,35.62,1.18,11,3.37,21.9,4.34,33,1.16,13.19,3.46,26.3,5.51,39.41,1.56,10,2.17,20.52,13.53,25.52a6.28,6.28,0,0,1,3.71,6.29c-.81,11.52,1.43,22.88,1.86,34.33.21,5.43.45,10.75,2,16,2.06,7.15,7.19,10.78,14.22,9,2.78-.73,5.28-2.16,8.84-.22.21,8.2,1.14,20.12.22,28.8-3,.49-54-6-76.4-11.49C148.5,553-11.65,570.61-15,571.19" transform="translate(15 26.54)"/><path class="cls-4" d="M-15,1018.14v-27c9.24-5.7,19.91-6.28,30.16-7.48,12.92-1.51,25.84-2.34,37.76-8.18,4-2,8.14-3.74,12-6a9.86,9.86,0,0,1,7.35-1.25c15.1,3.32,30.29,6.31,45.26,10.16a402.2,402.2,0,0,0,44.6,8.68c16.94,2.36,34.11,3.28,50.9,6.35,6.56,1.2,13.2,1.4,19.75,2.52,10.32,1.76,20.29,4.83,30.55,6.63,6.23,1.1,12.5,1.71,17.22,6.84,1.38,1.5,3.92,2,6,2.76,9.85,3.49,19.82,6.67,29.55,10.44,5.93,2.29,11.59,4.77,18.13,5.36,28.77.35,75.56,41.21,77.53,37.8a3.08,3.08,0,0,1,3.36,2.5c2-.17,5.79,1.77,6.86,1.94l-1.15,2.17c0,.63-2.46-.31-2.43.32-2,3.91-5,7.11-5.77,11.61-.42,2.57-.83,6-4.51,7.68-9.7,4.52-18.1,11-25.74,18.54-2.12,4,43.51-11.92,40.49-8.72-3.7,3.91,8.51,18.06,6,22.59-2.86,5.15-22.38,25.65-24.76,30.13-3.21,6-27.87,30.46-31.54,35.74-.48.7-24.35-3.6-24.51-2.68-2.87,1.63-14.53-22.8-16.43-20.21-3.26,4.45-5.38,10.22-11.54,12.4-8.87-12.15-21.48-24.93-30.28-37,.55-1,1.4-5,1.87-5.78,9-15.31,9.55-22.13-2.55-35.07-10.26-11-19.72-23.12-30.47-33.66-11.61-11.39-21.65-19.92-37-25.22a86.91,86.91,0,0,1-21.87-11.41c-6-4.26-11.41-10.54-20-10-.42-2.56-.75-5.35-3.88-1.68l-5.85,0a2,2,0,0,0-1.84,1.61l-3.93.31c-1.57,0-3.23-.09-3.82,1.91-6.34,3.23-8.34,8.74-8.07,15.42-2.08.09-3.55.77-3.49,3.22.05,2.14,0,4.28,0,6.43l-.3,5.81a2,2,0,0,0-1.63,1.89c0,.64-.1,1.28-.16,1.92h-1.75l-5.82-.19a2,2,0,0,0-2-1.69,56.52,56.52,0,0,1-11.21-1.54c-21-4.62-41.24-11.68-62.08-16.59-7.91-1.87-16.22-4.27-24.35-2.66-4.73.94-8.95,3.29-13.66,3.79-1.64-.2-3.34-.15-4,1.91-1.27,0-2.92-2.28-4.19-2.26-1.58-3.82-4.11-6.48-7.62-9-7.77-5.57-17.27-7.2-25.18-12.22" transform="translate(15 26.54)"/><path class="cls-7" d="M264.81,1373.92c-103.88-.61-170.37,0-170.37,0s18.61-6.6,29.71-11c16.59-6.49,32.54-14.62,48.74-22.1a21.6,21.6,0,0,0,2.3-1.73c7.75-5,8-6.55,2.29-14.05-7.27-9.63-14.32-19.43-21.71-29-2.73-3.53-6.34-6.38-9.21-9.82-5-6-11.51-6.15-17.36-3.15-11.94,6.13-25,9.62-36.72,16.1-10.36,5.74-21.3,8.68-26.63,1.89,2.52-3.54,16.1-12,29-17.55,10.8-4.68,21.32-10.15,32.42-13.93,9.66-3.3,19.3-2.47,27.46,5.42,11.31,11,19.84,24,29.12,36.54,3.56,4.79,7.15,9.55,10.72,14.34,20.19-11.21,36.86-26.11,51.69-42.79,8.82-9.91,15.83-21.5,23.11-32.69,12-18.41,25.16-35.93,38.5-53.33,2.88-3.76,2.81-5.79.32-9.87-7.31-12-16.94-22.28-23.82-34.52a12.64,12.64,0,0,0-9.13-6.34c-7.12-1.28-12.56-5.68-17.51-11-7-7.49-14.41-14.64-21.82-21.76-12-11.55-25.13-21.8-40.64-28.14-11.4-4.66-23.34-8-35.08-11.81-4.5-1.46-8.9-2.5-12.79-5.82-5.52-4.69-13.25-3.57-19.82-5.74-8.3-2.74-15.79-.58-23.69,2.8a359,359,0,0,1-56.63,19.16c-4.2,1-15.23,2.56-18.2,2.83l-17.31.24c-.63-3.36,2.29-3.76,4.19-5.08,1.7-1.19,4.48.14,5.53-2.44,7.55-1,15.11.29,22.82-1.67,13.55-3.43,26.56-8.41,39.76-12.8,6-2,12.63-3.57,17.94-8.47-4.24-3.29-9.25-3-13.67-4.38-10-3-19.83-6.47-30.23-7.79a2.07,2.07,0,0,0-2-1.7H34.87c-1.56,0-3.19-.2-3.94,1.68-3.19.08-7.11,1.76-10.29,1.84-4.54.25-3.14-4.59-3.16-7.37,1.27,0,7.1-1.17,8.37-1.19,2.17-.28,8.08-1.7,13.49-2.25,8.13-1.61,16.44.79,24.35,2.66,20.84,4.91,41.12,12,62.08,16.59a56.52,56.52,0,0,0,11.21,1.54,2,2,0,0,0,2,1.7l5.82.18.92,1.38.83-1.39c.06-.64.11-1.28.16-1.92a1.65,1.65,0,0,0,1.63-1.89l.3-5.81c2.24,0,1.63-4.78,4.83-3.06,3.89,3.93-3.37,8.3.64,12.65,4.24-1.85,2.55-7.89,6.63-9.44,3.26,3.72,0,6.92-.12,10.69,2.44.54,4.39,2,6.92,2.82,9.08,2.78,17.9,6.44,27,9.14a97.4,97.4,0,0,1,43.34,26.8c10.85,11.35,23.55,20.71,34.34,32.17,5.35,5.69,13.65,2.74,15.09-5,.84-4.49.27-9-2.6-12.79a136.45,136.45,0,0,0-10.4-12.46c-9.39-9.69-18.8-19.38-28.66-28.58A60.65,60.65,0,0,0,230,1061.11c-14.06-6.65-29.17-11.32-41.58-21.3-2.91-2.34-6.72-3.65-10.24-5.16-6.36-2.73-9.45-1.4-12.55,5.1a3.86,3.86,0,0,1-2.72,2.38c-2.44-5.45-2.51-5.53-7-2.26-1.85,1.34-2.81.71-3.77-.86-.27-6.68,1.73-12.19,8.07-15.42,1.59,0,3.24.1,3.82-1.91l3.93-.31c1.18.11,1.7-.54,1.84-1.61l5.85,0c.64,2.06,2.25,1.9,3.88,1.68,8.57-.54,14,5.74,20,10a87.41,87.41,0,0,0,21.87,11.41,105.75,105.75,0,0,1,40.14,25c10.74,10.54,20.36,22.08,30.62,33,12.1,12.93,11.65,24.57,2.63,39.88-.47.79-.87,1.62-1.42,2.64l26.43,36.22c6.16-2.18,8.28-8,11.54-12.4,1.9-2.59,3.45-5.29,6.32-6.91,5.26,3.91-3.26,5.3-2,9.06a19.39,19.39,0,0,0,6.29,5.77c5.17,2.72,8.22,9.36,15.37,8.41-.19,3.21-2.64,5-4.53,7.1-4.86,5.5-9.95,10.83-14.36,16.67-19.71,26.14-38.41,53-56.75,80.1-6,8.94-11.52,18.63-20.41,25.12-7.33,5.35-13.3,12-19.73,18.19-2.86,2.77,14.28,4.92,11,20.49,3.83,2,10.51-3.66,14.55-1.15,2.66,1.66-1.43,4.16,1.66,6.76,8.59,7.22,13,8.2,15.56,8.06,1.22-.06,2-.39,2.57-.39m249.62,9.49c2.43,0-6.87-11-4.73-13-3.57-16.75-.18-24.16-6.65-39.88-2.63-6.41-4.09-13.34-7-19.59a33.48,33.48,0,0,1-3.15-13.78c2.34-3,6.47-2.25,9.15-4.47,4.08-3.38,6,.27,8.45,2.48,2.6,8.33,10.55,12.62,13.15,20.95-.32,2.73,49.36,58.15,71.15,67.32l-29.28.24c-5.11-7.31-21.67-20.22-26.21-19.56,1.6,5.67,6.11,14.86,8.66,20.22M183.76,1370h27.05c14.91-19.84,14.91-19.84,13.24-26.57L183.76,1370" transform="translate(15 26.54)"/><path class="cls-7" d="M631.57,1372.62a1.06,1.06,0,0,1-.29-2.08q78.56.07,157.13.13c18.31,0,36.62-.13,54.93-.21l1.47-.74-1.43-.87c-1.39-5.17-3-10.23-7.66-13.56.14-3.29,0-6.42-3.88-7.69a36.38,36.38,0,0,0-7.82-15.4c.05-1.59.26-3.26-1.87-3.77l-.06,0c-.45-4.08-1.72-7.67-5.69-9.68a36.56,36.56,0,0,0-7.81-15.39,2,2,0,0,0-1.79-2c0-.61-.08-1.22-.17-1.82-.41-4.09-1.7-7.66-5.66-9.68-2-6.43-4.26-12.76-9.61-17.36.13-3.28-.05-6.41-3.89-7.68-1.48-5.71-7.56-18.66-9.69-19.17,0,0-1.78-7.71-5.74-9.73-.09-1.58,0-3.24-2-3.84-.11-1.12,3.42-16.7,9.8-17.51l0,.09a2,2,0,0,0,1.8,2c7.24,11.53,13.74,23.6,19.95,35.57s12.91,23.83,18.91,36c7.86,15.9,16.32,31.49,25.62,46.67,5.72,9.34,8.64,20.4,15.92,29,.58,7.41,5.88,7.12,11.19,6.84,1.6-.08,3.2-.09,4.8-.13,2.69-1.21,2.46-2.41,0-3.62l0-.06c.05-1.6-1.93-3.85-1.93-3.85,0-1.6-1.93-3.86-1.93-3.86,0-1.59.24-3.27-1.88-3.79l0-.06c0-1.6.25-3.27-1.88-3.79l0-.06c0-1.6.24-3.28-1.89-3.8l0-.06c0-1.59.24-3.27-1.89-3.79l0-.06c0-1.6.24-3.27-1.89-3.79l0-.06c0-1.6.24-3.27-1.89-3.8l0,0c0-1.6.24-3.28-1.89-3.8l0-.06c0-1.6.24-3.27-1.89-3.79l0-.06c0-1.6.24-3.27-1.89-3.8l0,0c0-1.6.24-3.28-1.88-3.8l-.05-.06c.05-1.59-1.93-3.85-1.93-3.85,0-1.6.24-3.27-1.88-3.79l-.05-.06c.05-1.6.25-3.28-1.88-3.8l0-.06c0-1.59.24-3.27-1.89-3.79l0-.06c0-1.6.24-3.27-1.89-3.79l0,0a2.1,2.1,0,0,0-1.79-2q0-.91-.12-1.83c0-1.61.28-3.31-1.89-3.82-.74-5-3.83-9-6-13.45,5.14-4.25,10-8.67,11.8-15.46-.12,3.08,1.84,5.37,3.1,7.9,13.89,27.92,27.72,55.87,41.89,83.65,2.4,4.72,2.82,10.45,6.71,14.1l92,3.52c-9.84-15.43-22.53-33.88-32.06-48.79-15.57-24.33-31.79-48.26-46.57-73.1-5.12-8.61-11.17-16-22.17-17a44.52,44.52,0,0,1-4.58-1.16,36.72,36.72,0,0,1-18.91-10.29c-14.87-14.57-24.1-24-37.54-39.72-2.1-2.46-9.07-11.17-9-15.44-1.83-2.66-1.54-6-3-9,.54,3.49-3.26,5.55-2.42,9,0,3.16-.05,6.33-.07,9.49-.2.93-.12,2.44-.65,2.7-4.46,2.17-9,4.38-13.87,2.59-1.58-2.12-.87-4.1-1.12-5.93-1.13-8.27,1.5-16.25,1.91-24.39.06-.62.09-1.24.1-1.86,2.86-1.24,1.9-7.1,1.91-7.73a1.87,1.87,0,0,0,1.71-2c.5-2,1.3-5.07,1.81-7,.71-1.32.12-3,.27-4.54.06-1.23.11-2.46.16-3.7a2.18,2.18,0,0,0,1.73-2.09c0-1.25.09-2.5.14-3.76,2.84-1.26,1.63-3.78,1.82-5.86,0-.63.06-1.25.08-1.88,1.27-.27,1.9-1.07,1.65-2.63l1.22-4c1.75-1.59,1.27-3.29-.82-5.07,0-1.18,0-2.36,0-3.55,2.67-.12,4-1.37,3.45-4.15a70.29,70.29,0,0,0-1.77-23,2.94,2.94,0,0,0-.16-.75c-.59-2.43-1.15-4.78-1.73-7.22,0-1.22-.07-2.45-.1-3.67s-.08-2.47-.11-3.7a14.24,14.24,0,0,0-1.88-9.2c-.52-1.79-1.3-4.5-1.82-6.28,0-.67,0-1.34,0-2,0-1.24-.07-2.47-.11-3.7a14.27,14.27,0,0,0-1.88-9.21c-.52-1.78-1.3-4.49-1.81-6.27l-.06-2c0-1.24-.07-2.47-.11-3.7.62-3.42.06-6.34-3.47-8l-.24-9.44a2.2,2.2,0,0,0-1.72-2.11c-.07-2.51-.13-5-.2-7.53,0-1.21-.09-2.42-.13-3.62l.06-3q.14-3.78-4.7-2.67l-4.94-.31a31.38,31.38,0,0,0-15.39-1.74c-4.6-1.29-8.68,2.06-13.2,1.5-.24-2-.91-3.64-3.39-3.59-4.45.08-8.91.1-13.37.17l-2.57-.09a2.11,2.11,0,0,0-2.26,1.7l-3.51-.24c-.24-2-.88-3.57-3.35-3.47-2.17.08-4.34.13-6.5.19l-15.53-2.78a13.85,13.85,0,0,0-7.54-1.11l-8.7-1.65a4.42,4.42,0,0,0-3-.29l-3.78,0c0-1.92-.63-4.3.26-5.68,3.17-4.9.3-8.32-2.19-12,9.35,1.5,18.82,2.47,28,4.62,14.29,3.34,28.89,3.28,43.31,5,6,.73,11.75,1.91,18,1.61,7.08-.34,11,0,17.11,0,.13-12.68-5.14-23.13-8.09-34.25,0-.72,0-1.42,0-2.14.44-2.76-2.29-4.7-2-7.42a1.94,1.94,0,0,0-1.53-2c-.13-3.76-.14-4-.27-7.77,3.1-1.4,6.29-2.66,8.48-5.44,1.84-2.34,4.29-2.43,6.91-2.05l.21,3.69c-.08,1.61.43,1.5,2.51,2.13,2.22,9.52,4.62,19.92,7.53,29.23,8.51,27.21,12.42,56.15,16.87,84.23a2.09,2.09,0,0,0,1.66,2l.36,13.28c1.8,3.09,2,6.5,2,9.94,0,1.16,5,58.29,3.47,73a2.09,2.09,0,0,0-1.66,2,12.52,12.52,0,0,1-.09,2.88c-2.12,7.94-4.23,15.88-6.51,23.77-2.33,8.1-1.76,9.53,5.69,14.3a26.2,26.2,0,0,1,6.65,6.83c3.57,4.85,7.36,9.56,11.16,14.24,8,9.87,15.93,19.81,24.18,29.47,3.46,4,6.51,8.87,12.07,10.55,6.35,1.93,12.39,4.87,19.06,5.79,8.27,1.14,13.88,6.44,18.13,12.88,9.44,14.3,18.25,29,27.53,43.42,18.23,28.29,36.76,56.38,54.76,84.81,2.69,4.25,14,8.6,18.54,8.59,45.81-.14-387.62-1.34-387.62-1.34" transform="translate(15 26.54)"/><path class="cls-4" d="M-15,751.19V567.34a107.69,107.69,0,0,1,13.05-2c10.31-1.16,20.56-2.9,30.81-4.51,11.67-1.84,23.16-5.53,35.2-3,2.74,3.67,2.19,8,1.87,12-.81,10,.06,19.81,1.46,29.75.77,5.45,3.11,11.68-2.35,17-2.44,2.37-1.35,6.26,2,8.09,2.86,1.56,5.1,4.54,4.41,6.69-2.07,6.42,1.24,12.36.49,18.6-1,7.93,2.46,15.59,2.35,23.62,0,1.8-.07,5.95,3.21,7.42.05,3.85.09,7.69.13,11.54,0,3.68-1,7.74,3.61,9.72,0,1.26,0,2.51,0,3.76-2.81,5-3.71,9.74,1.89,13.58,0,1.9,0,3.79,0,5.69-2.83,5.64-2.56,7.32,1.88,11.65,0,1.9,0,3.79,0,5.68C82,745,83,748.34,83.92,750.93c.74,2.14.08,3.42-.6,5l-9.47-.08c-.16-2.13-.94-3.6-3.42-3.56-4.75.09-5.34,5.09-10.09,5.14-4.62-1-12.89-2.78-17.46-3.37,0-2.16-55.66-2.89-57.88-2.89" transform="translate(15 26.54)"/><path class="cls-7" d="M64.06,557.81c-12-2.55,1.52-10.24-10.15-8.4C43.66,551-9.53,566.43-15,567.34v-20c2.38-.85,49.55-13.92,54.21-17C34.93,527.6-15,519-15,519v-7.59S31.74,519.75,48.72,525c9-.58,17.6,1.46,26.36,3.38,36.8,8,73.15,17.88,109.71,26.9,22.41,5.53,72.5,16,75.53,15.48.92-8.69.62-17.17.41-25.37-3.56-1.94-6.06-.5-8.85.22-7,1.83-12.16-1.81-14.21-9-1.52-5.28-1.76-10.6-2-16-.43-11.45-2.67-22.81-1.86-34.33a6.3,6.3,0,0,0-3.71-6.29c-11.36-5-12-15.53-13.53-25.52-2-13.11-4.35-26.21-5.51-39.41-1-11.08-3.16-21.95-4.34-33-1.27-11.92-3.84-23.7-5.16-35.62-1.15-10.39-3.26-20.66-4.12-31-.42-5.16-1.77-13.95-2.34-14.66-3.16-2-5.22,0-7.57.82-1.09-4.35-5.56-7-5.91-11.75l.06,0c1.12-.1,5.85-3.44,15.51-7.59,26.27-12.08,52.51-24.31,79.59-34.45,28.51-10.67,54.69-24.89,78-44.59,12.39-10.47,24.75-21,37.2-31.39,6.64-5.56,13-11.34,19-17.5,2.17-2.21,4.41-3.61,7.61-3,6.21,1.18,7.91,4.88,4.41,10.26a46.41,46.41,0,0,1-7,9q-18.91,17.53-39.2,33.49c-2.76,2.17-7.56,6.76-11.07,10.08-10.08,8.23-6.95,5.68-19.28,12.46-.2.59-.47,1.15-.71,1.72h0c-1.11.15-24.27,13.86-33,19.65-10.94,8.3-16.56,7.71-28.47,12.77-19.58,8.32-30.26,12-49.56,21-8.05,3.77-16.37,7-24.61,10.31-6.8,2.78-8.32,5.15-7,12.59,2.47,13.7,4.32,27.47,5.86,41.32,1.74,15.68,5.52,31.13,7.13,46.81,1.2,11.68,3.19,23.24,4.53,34.88s2.67,23.21,5.14,34.67c.92,4.29,2.76,7.67,6,9.19,8.58,4,8.89,11.62,9.64,19.19.25,2.54,0,5.14,0,7.7.2,10.59,1.22,19.57,2.12,30.48a12.43,12.43,0,0,0,4.93,9.41c3.08-1,6.35-2,9.9-1.84,7.32.29,10,2.45,10,9.63,0,8.57,1,17.21-1.84,25.34,5.32,4.39,12.13,2.46,17.39,5.55,0,.67,0,1.35-.05,2-4.4-.58-9.3,1.36-13.14-1.1-4.54-2.92-9.68-3-14.46-3.94-7.72-1.47-16.07.59-23.21-4.53-1.07-.76-3.12-.2-4.71-.16-2.57.07-5,0-7.3-1.58-3.9-2.61-8.31-2.85-13.22-1.84-4,5-2.81,11.83-4.9,17.63-1.54,4.24,4.63,5.08,3.85,8.94-2.22-.16-4.54,0-6.66-.53-15.21-4-30.34-8.24-45.58-12.1-14.67-3.73-29.44-7.08-44.17-10.6-.7-2-2.33-1.84-4-1.73l-3.78-.18c-.65-2.07-2.32-1.86-3.94-1.74L95,565.39c-.65-2.08-2.31-1.86-3.93-1.75l-3.78-.18c-1.75-3-4.28-1.81-6.63-1.31-2.43,2.52.49,6.57-2.92,8.94-2.88-.15-6.06.82-8.95-.52-1.52-3.39-.66-6.62-.88-9.75-.18-2.59-1.71-3.1-3.85-3" transform="translate(15 26.54)"/><path class="cls-7" d="M415.14,1068.34c-6.54-.84-74.54-39.73-80.89-40.3-6.54-.59-12.2-3.07-18.13-5.36-9.73-3.77-19.7-6.95-29.55-10.44-2.09-.74-4.63-1.26-6-2.76-4.72-5.13-11-5.74-17.22-6.84-10.26-1.8-20.23-4.87-30.55-6.63-6.55-1.12-13.19-1.32-19.75-2.52-16.79-3.07-34-4-50.9-6.35a402.2,402.2,0,0,1-44.6-8.68c-15-3.85-30.16-6.84-45.26-10.16a9.86,9.86,0,0,0-7.35,1.25c-3.87,2.22-8,4-12,6-11.92,5.84-24.84,6.67-37.76,8.18-10.25,1.2-20.92,1.78-30.16,7.48V983a3.86,3.86,0,0,1,2.87-1.55c12.15-3.93,24.78-4.53,37.35-5.84,10.29-1.07,20.37-3.37,29-10.49-2-1-3.31-2.08-4.8-2.36Q29,958.85,8.32,956.43c-7.81-.92-15.55-2.51-23.32-3.79v-5.78c10.55-.27,20.76,2.2,31.12,3.57,9.42,1.24,18.89,2,28.18,4.1,12.94,2.94,25.85,6,38.85,8.58,23.54,4.69,46.66,11.25,70.46,14.81,14.4,2.15,28.91,3.47,43.28,5.72,24.33,3.81,49.08,5.22,72.78,12.75a18.46,18.46,0,0,0,10.41.23,11.7,11.7,0,0,1,8.09.23c17.64,6.13,35.35,12,53,18.2,1.64.58,3.83,1,4.61,3.07.19,1.1,6.15,1.73,7.3,1.74,3.28.19,68.57,39.36,72,38.78.52,5.55-6.65,5.77-10,9.7" transform="translate(15 26.54)"/><path class="cls-4" d="M-15,1147.22V1029.7c7.39.2,13.08,4.42,18.87,8.22,7.87,5.15,10.49,10.78,7.61,19.3-1.82,5.37-3.28,10.85-4.87,16.26-5.6,19-10.41,38.17-16,57.16-1.63,5.57-2.31,11.55-5.64,16.58" transform="translate(15 26.54)"/><path class="cls-7" d="M-15,1147.22c3.33-5,4-11,5.64-16.58,5.56-19,10.37-38.19,16-57.16,1.59-5.41,3.05-10.89,4.87-16.26,2.88-8.52.26-14.15-7.61-19.3-5.79-3.8-11.48-8-18.87-8.22v-11.56c7.91,5,17.41,6.65,25.18,12.22,3.51,2.52,6,5.18,7.62,9,0,2.78-.65,6,3.89,5.77,1.92,11.9-6,22.48-5.69,34.3l5.74.58c-1,2.58-3.83,1.25-5.53,2.44-1.9,1.32-4.82,1.72-4.19,5.08-7.91,28.67-15.76,57.36-24.73,85.72-.71,2.24.94,5.34-2.29,6.72Z" transform="translate(15 26.54)"/><path class="cls-4" d="M-15,952.64c7.77,1.28,15.51,2.87,23.32,3.79q20.7,2.43,41.14,6.35c1.49.28,2.83,1.37,4.8,2.36-8.67,7.12-18.75,9.42-29,10.49-12.57,1.31-25.2,1.91-37.35,5.84A7.61,7.61,0,0,0-15,983V952.64" transform="translate(15 26.54)"/><path class="cls-7" d="M-15,402.3V386.85c7.23-2.86,50.06-24.44,52.16-25.6.61,0,1.21,0,1.82-.09,7.28,2.6,7.37,1.8,7.78,10.64-1.11.11-59.83,29.82-61.76,30.5" transform="translate(15 26.54)"/><path class="cls-4" d="M1149.57,1374c-45.92,0-90.42-.14-136.34,0-4.54,0-9.89-4.34-12.58-8.59-18-28.43-36.53-56.53-54.76-84.81-9.28-14.41-18.09-29.12-27.53-43.42-4.25-6.44-9.86-11.74-18.13-12.88-6.67-.92-12.71-3.86-19.06-5.79-5.56-1.68-8.61-6.5-12.07-10.55-8.25-9.66-16.18-19.6-24.18-29.47-3.8-4.68-7.59-9.39-11.16-14.24a26.2,26.2,0,0,0-6.65-6.83c-7.45-4.77-8-6.2-5.69-14.3,2.28-7.89,9.09-43.63,4.79-101.65,6.68-.54,10-6.34,14.76-9.63,6.73,2.92,13.52,1.55,20.16,1.69,13.9.3,24.45-9.82,19.14-26.85-1.22-3.91-2.1-7.92-3.21-11.87-4.71-16.68-10.16-33.19-14-50.06-4.62-20.29-11-40.1-15.86-60.3-4.61-19-10.42-37.64-15.27-56.55-5.16-20.14-11.21-40-15.81-60.32-2.33-10.31-7.17-13.13-18-13.39-5.79-.13-11.39,1.64-17,1.7-8.76.1-16.93,2.23-25.17,4.48-1.8.49-3.13,1.48-5.35.66-6.39-2.37-12.37-1-18.26,2.39-4.34,2.47-8.77,5.52-14.33,4.26-4.64-6.44-8.53-13.37-14.13-19.16-3.28-3.39-4.19-7.48-1.3-12.14,4-6.49,6.47-13.81,9.75-20.69,12.35-25.88,25.05-51.59,37.63-77.37,1.82-3.73,3.78-7.39,5.49-11.17,2.81-6.25,4.8-12.53.43-19.05-.83-1.23-.92-3-1.25-4.52-2.44-11.08-4.76-22.19-7.3-33.25-2.68-11.69-5.55-23.34-8.34-35l16.6-3.86,10.51,34.37C786.42,632.06,804.48,698.92,822,766q21.27,81.57,42.57,163.12,30.81,117.16,61.87,234.27c2,7.41,3.87,14.84,6,22.2a33.06,33.06,0,0,0,3.42,7.88q42.52,69.75,85.18,139.39a41.77,41.77,0,0,0,3,3.79c6.15-1.7,11.48-4.79,16.53-8,2.13-1.35,4.86-2.77,6.39-4.83,2.18-2.93-113.92-565.69-110.09-565.43.41,0-30,0-40.71-4.19-2.67-1-.48-5.89,0-6.93,1.12-2.39,17.06.7,32.68-1.1,7-.81,12.82-5.23,19.34-6.24,21-3.26,22.82,9.89,25.18,17.92,34.3,116.28,108.37,568.9,118,569.45,4.88.27,9.76.52,14.64.72,7.81.33,15.11,2.53,22.56,4.36,3.57.88,5.56,2.93,6.1,6.51.19,1.27.45,2.53.7,3.78,2,10.42,5.9,23.9,14.28,31.34" transform="translate(15 26.54)"/><path class="cls-4" d="M754.68,282.81c-3.3,7.65-4.64,28.29-2.85,36.43,7.84,35.61,18.8,70.28,31.09,104.54,2,5.66,1.36,10.19-.95,15.37-8.32,18.67-16.52,37.4-24.33,56.29-2.49,6-5.92,9.95-12.19,12.27-4.35,1.61-9.66,1.47-12.93,5.64-1.51-1.21-1-2.88-1-4.43,0-8.35,0-16.69.08-25,.12-8-2.2-14.7-8.38-20.41-9.66-8.93-18.71-18.52-28.05-27.81-2.28-2.26-5.83-3.91-8.5-5.57-6.34-3.95-9.37-10.57-14.36-15.85,1.77-1.58-5.65-3.18-4.71-5.56,3.4-8.52,19-13.19,23.43-21.09,6.2-11,11.2-22.68,15.89-34.28,4.07-10.09,9.6-19.26,14.33-28.9,2.44-5,2.86-14.25,8.57-16.89,2.69-.38,24-24.33,24.85-24.71" transform="translate(15 26.54)"/><path class="cls-7" d="M822.72,1097.92a1.89,1.89,0,0,0-.25-.83c.32,1.56.42,2,.25.83" transform="translate(15 26.54)"/><path class="cls-7" d="M756,608.07c-.83-1.24-.92-3-1.25-4.53-2.44-11.08-4.76-22.19-7.3-33.25-2.68-11.69-5.55-23.34-8.34-35,0,0-4.86-15.61-6.54-21.94-1.51-1.21-1-21.12-.91-29.47.12-8-2.2-14.7-8.37-20.41-9.67-8.93-18.72-18.52-28.06-27.81-2.28-2.26-17.87-16.14-22.86-21.42,1.77-1.58,14.25-18.75,18.72-26.65,6.21-11,11.2-22.68,15.89-34.28,4.07-10.09,9.6-19.26,14.33-28.9,2.45-5,7-12,11.16-15.22.59-6.05-4.33-8.15-8.61-10.93C709.44,309,702.14,326,695.38,341.62c-7.92,18.33-16,36.5-26.29,53.63-3,5.06-14.75,17.51-16.93,19.79,3.91,1.93,5.11,7.28,10,8,1.8-1.25,3-2.07,5.35-3.7,6.15,10.1,17.09,15.17,25,23.33,8.44,8.73,16.83,17.57,25.86,25.66,6.52,5.84,7.68,13.68,6.82,20.66-.93,7.6-.81,15.16-1.47,22.7.32.57.92,3.5,1.51,5.67,1.75,8,5.14,15,7,22.94,2.35,6.45,3,12.28,4.87,18.43,5.35,17.81,7.81,36.37,13.27,54.18,2.63.52,5.39,1.09,8.06,1.83a14.24,14.24,0,0,0-2.46-6.63" transform="translate(15 26.54)"/><path class="cls-7" d="M814.91,1147.84c-.15.54-.24.4-.26-.6,0,0,.09.19.26.6,1.17-4.29,6-52.48,7.56-50.75-2.83-14-22.88-123.59-19.11-114.07,2.84.76-160.14-253.57-155.94-254,7-.69,12.2,2.9,17.57,6a65.17,65.17,0,0,1,22.44,21.44c6.05,9.21,13.19,17.71,19.89,26.49,1.16,1.51,3,2.67,2.91,4.79-.43,7.67,4.21,13.27,8.15,18.91,3.59,5.14,60.52,115.25,65.75,119.19,4.24-5.21,13.24-21.26,19.23-24.16-4.32-9.43-64.07-114.11-71.83-121.36-1.31-1.22-4.85.62-5.76-1q-3.84-5.81-7.7-11.61c-4.63-6.44-8.52-13.37-14.12-19.16-3.28-3.39-4.19-7.48-1.3-12.14.54-.87,1.05-1.77,1.54-2.67-2-1.17-4-2.47-6-3.67a9.22,9.22,0,0,1-4.18,4.28c-4.59-2.58-8-6.83-12.24-10.12-11.35-8.91-23.83-12.6-38-12.43-24.1.29-22.83,2.24-46.93,2.25.08,2-14.58,7.74-7.42,7.43,4.07,4.4,6,.74,7.7,5.05,4.3,1.91,9.25.08,15.38,1.48-7.42,5.09-14.2,8.68-21.73,10.89-1,.23-90,34.79-98.26,40.54,4.41,1.94-4.8,204.41,1.86,202,.2.45-72.36,211.91-56.78,221.72,14.61,9.2,109.49,149.66,137.21,150.89,6.69.3,10.44,19.92,20.71,19.92H903.27s-83.13-213.21-88.36-226.08" transform="translate(15 26.54)"/><path class="cls-7" d="M814.91,1147.84c-.17-.41-.26-.62-.26-.6,0,1,.11,1.14.26.6" transform="translate(15 26.54)"/><path class="cls-8" d="M907.26,473c2.94-.61,5.39,1.18,7.92,1.74,2.05-.69-1.37-37.93-.35-50.74.26-3.21,3.19,0,3.75,0,.38,7.33,4,61.5,4.11,68.84.1,6.7-2,9.64-6.89,11.19-5.41,1.69-11.51.14-14.62-4.07s-5.41-9-2-14.12A118.6,118.6,0,0,0,907.26,473" transform="translate(15 26.54)"/><path class="cls-7" d="M837.56,193.55c6.61-.87,7.57,8.27,8.37,8.74-2.62,4.85-20.06,28.52-21.73,30.35-12.18,13.42-63.5,51.2-73.74,58.47-1.74.69-19.47,19.8-22.24,22.35.59-6.06-.66-12-5-14.79,2.21-3,31.61-29.38,38.94-34.2,41.62-27.36,60.07-54.4,61.15-55.59,2.44-2.71,11.1-10.71,14.2-15.33m-99.22,89.19-.36.56.6.06Z" transform="translate(15 26.54)"/><path class="cls-7" d="M909.4,288.45c0,1,0,2,.07,2.94-1.4,2.22-3.13,3.09-6,1.09.33-3.23-2-6.35-2-9.73.12-14.66-3.45-28.94-4-43.51-.24-5.83-2.56-10.24-8.44-13.06,1,9.3,1.45,18.06,2.87,26.66,1,6,.83,12.14,2.19,17.86,2.79,11.73,3,23.74,5.17,35.53,2.12,11.46,2.14,23.32,4.42,34.74,1.13,5.7.6,11.45,2,16.94,2.9,11.68,3.52,23.68,5.14,35.52,1.58,11.56,4.09,23.05,4.21,34.8,0,2,4.87,39.46,3.66,42.55-3.45,10.29-9.51,7.39-11.38,2.18,0-.66-34.91-258.8-34.75-262.06,2.86-2,1.8-3.19-.84-4.05-.38-1.27-.76-2.53-1.13-3.8-1.65-8.2-7.07-11.53-14-8.11-4.12,2.05-8.57,3.94-11.18,8.17l-2.24,0a1.29,1.29,0,0,0-1.08.16c1.68-4.26,1.29-4.83-4.29-6.19l-.21-3.49c5.27-5.62,8.19-8.72,9.73-9.59,4.81-2.65,9.71-4.3,15.44-4,8.38.48,14.78,4.21,18.88,11.1,3.54,5.94,6.48,12.36,6.17,19.7-.23,5.12,1.09,9.11,7,10.66,2.92.76,5.38,3.26,8.05,5,3.08,19.77,5,39.66,6.2,59.63.12.8.23,1.6.35,2.4" transform="translate(15 26.54)"/><path class="cls-9" d="M918.36,432.53c-1.88-.85-3.36-2.31-3.38-4.29-.12-11.76-2.63-23.25-4.21-34.81-1.62-11.83-2.24-23.84-5.14-35.52-1.37-5.49-.84-11.24-2-16.94-2.28-11.42-2.3-23.28-4.42-34.74-2.17-11.79-2.38-23.8-5.17-35.53-1.36-5.71-1.21-11.89-2.19-17.86-1.42-8.6-1.92-17.36-2.87-26.66,5.88,2.82,8.2,7.23,8.44,13.06.58,14.57,4.15,28.85,4,43.51,0,3.38,2.33,6.5,2,9.74,2.86,2,4.59,1.12,6-1.09.48,4.84,1.15,9.68,1.41,14.54.29,5.54,1.79,22.66,1.82,24.64,0,4.78.14,9.57.46,14.35,1.78,26.34,3.66,52.68,5.42,79,.19,2.84-.13,5.71-.22,8.57" transform="translate(15 26.54)"/><path class="cls-7" d="M284,579c0-.68,0-1.36.05-2l11.67.29c.72,1.86,2.34,1.54,3.81,1.59,13.09-.25,25.92,2.19,38.87,3.39,8.53.79,17,2.11,25.63,2.62A269.43,269.43,0,0,1,391.34,588c8.12,1.33,16.52.46,24.66,2.39,1.83.44,3.82.3,5.65,1.27,2.47-2.29,3.08-5.18,3.28-8.46a153.25,153.25,0,0,1,3.74-25.29c4.19-18.3,20.79-32.89,39.54-34.87,10.46-1.1,20.3-4.7,30.19-8,2-.65,3.65-2.58,5.1-4.24,4.18-4.78,34.09-25.19,39.07-29.08,2,0,7.57,11.64,9.57,11.61-4.76,3.64-33.46,21.34-36.87,23.71s-5.19,5.42-4.2,11.37c.81,4.88,1.25,16.65,1.25,22.23-4,.2-8.29-5.63-11.41-7-2.08-4.87.43-9.92-1.92-14.41-2.76.61-34.94,9.23-35.56,9.32-12.75,1.59-18.52,13.28-21.22,22.82-2.41,8.54-2.14,17.46-3.75,26.12-1.38,7.4-1.56,15-5.7,21.74-1.8,2.91-2.47,6.24-3,9.58,3.38,1.53,6.18,4.19,9.72,4.2,4.75,0,8.27,2.23,12.23,4.44,8.56,4.79,34,19.4,34.85,18.65,15.9-14.38,13.36-23.57,14-23.58.24,1.09-.33-80.76-.49-84l11.49,1.34s6.4,72.94-.91,95.73c-2.66,8.29-14.12,19-15,23.87-.05,1.22.58,6.83.68,9.35q.13,3.29.25,6.57c0,1.88-.07,3.75-.1,5.62a1.55,1.55,0,0,0,1.72,1.77c3.31.2,10.33-4.18,13.26-2.25.21,1.1,3.87.78,5,.77s2.41,1,3.66,1.1c.23,1.1.48,2.46,1.62,2.51,5.33,3.47,4.13,11.32,10.88,11.79.5,2.15-.73,3.48-2,5-2.75,3.24-6.2,6-7.4,10.37-3.24-1.3-5.89-4-9.64-4a2,2,0,0,0-2-1.8c-2.26-3.09-5.49-4-9.09-3.95a14.11,14.11,0,0,1-8.18-2,1.94,1.94,0,0,0-2-1.71c-5.05-.26-10-.34-15-2-7.13-2.37-14.44-5.19-21.8-5.62-14.92-.87-29.93-.26-44.48-.26-2.19,2.18-16.47,44-19.42,44.57.09-1-19.79-11.91-23.87-22.83-4.53-12.14,21-65.28,24.29-75.69,0,0,33.28-10.13,34.31-11.14,1.47,7.13-10.87,37.82-10.84,45.29,11.61,1.39,23.05,1.08,34.34,1.86,11.64.79,22.69,3.92,34.73,6a48.24,48.24,0,0,1,0-5.48c.89-6.71-1.16-11.32-7.64-14.65-7.86-4-15.16-9.19-22.59-14-5.83-3.78-12.87-6.38-16.87-12.07-2.84-4-5.55-6.21-10-6.08-3.66,7.77-30.08,10.29-35.48,10.28,1.11-5.47,2.22-10.94,3.38-16.63-6.75-.9-13.32-2.48-19.89-2.47-9,0-17.77-1.84-26.62-2.67-6.95-.65-14.16-.16-20.85-1.86-8.43-2.15-17-1.85-25.49-3-7.8-1.06-15.69-2.47-23.69-2.83-3.08-.13-7.74.23-10.36-3.32a45.05,45.05,0,0,0,6.58-.12c5.12-.82,10.21-6.56,8.58-11.32s.45-9,.28-13.47" transform="translate(15 26.54)"/><path class="cls-7" d="M345.77,228.31c.24-.57.51-1.13.71-1.72,4-12.31,5.59-12.86,19.47-13,1.36,9.66,12.38,29.63,13,31.93,5.75,20.86.29,51.14-2.8,57.85-1.06,2.31-2.72,4.46-3.42,6.79-8.45,28.21-5.79,62.73-5.8,71.38,0,4.81,0,9.61-.06,14.42-3.31-4.07-3.69-8.88-3.83-13.89-.18-6.8,1-13.7-.87-20.83H349.55c-2.22-.91,1.73-29.42,1.81-32.14.27-9.07,5.43-27.12,7.93-31.35,6.48-10.94,6.73-22.65,4.78-34.66-1.59-9.77-5.65-18.84-8.93-28.09-.86-2.43-4.34-8.78-5.48-9.18a27.62,27.62,0,0,0-3.89,2.52" transform="translate(15 26.54)"/><path class="cls-7" d="M46.76,371.8c-.41-8.84-2.33-8-9.6-10.55,4.09-3.6,133-64.86,144.49-71.4.35,4.73,4.82,7.39,5.91,11.75-.41.91-131.18,63.81-140.8,70.2" transform="translate(15 26.54)"/><path class="cls-7" d="M544.45,498c-.2-2.1.72-4.55-1.93-5.85s-1.67-3.78-1.92-5.86c0-.63,0-1.27-.1-1.91-1-6,109.33-66.8,113.55-71.34,3.92,1.93,9.17,4.79,14.08,5.47-3.44,4.36-13.41,11.49-17.88,14.56" transform="translate(15 26.54)"/><path class="cls-7" d="M349.55,361.21h12.63c1.86,7.13.69,14,.88,20.83.13,5,.51,9.82,3.82,13.89,0,1.9,4.73,40.2,5.79,40.47,0,4.33,1,9.21-5.6,9.75H363c-1.57-.13-4.81-.49-5.72-5.91-3.74-3.34-7.25-38.45-7.59-46.34l-.12-32.69" transform="translate(15 26.54)"/><path class="cls-10" d="M299.48,578.88c-1.47,0-3.1.27-3.81-1.59,1.6-.26,3.1-.29,3.81,1.59" transform="translate(15 26.54)"/><path class="cls-7" d="M62.18,769.6C50,768.87,9.62,767,6.85,766.77,1.12,766.2-15,763.84-15,763.84V746.5s40.83,7.64,71.18,6c.24,2.06,1,3.63,3.44,3.59,4.74-.09,9.48-.12,14.23-.18l9.47.08c2,.15,3.73-.13,3.83-2.7.16-3.7.38-7.41-2-10.64,0-1.89,0-3.78,0-5.68.28-4,.77-8.09-1.88-11.65,0-1.9,0-3.79,0-5.69.84-4.73-.33-9.18-1.89-13.58,0-1.25,0-2.5,0-3.76,0-2.19.09-4.39.12-6.59,0-2.55-1.69-3-3.73-3.13,0-3.85-.09-7.69-.13-11.54,2.89-.66,1.21-4.14,4.1-5.79h9.63c.06,3.18.11,6.37.16,9.55,0,2.12-1.24,4.57,1.64,5.89.06,4.48-.6,9.11.32,13.41,3,14.25,3.14,28.83,5.28,43.18C100,756.29,100.88,758,110.49,758c18.6,0,37.2,0,55.8-.07,11.15,0,22.29,0,33.43.06,2.71,0,5.23,0,5.39-3.63,4-.93,7.48,1.52,11.32,1.57a1.77,1.77,0,0,0,1.91-1.77l0-44.28c4.55-3.08,9.1.16,13.64,0l.06,40.41c1.16,4.62,2,4.88,5.67,1.77l7.64-.08c1.64.24,3.27.47,4-1.6,3.84-.07,7.86.56,11.49-.34,12.31-3,25-3.35,37.42-5.16,11.53-1.68,23.2-2.75,34.78-4.27,6.81-.89,13.16-3.64,19.66-5.74,1.28-.42,2.23-.76,2.64-2.24,2.59-9.29,9.11-16.44,13.58-24.71a2.08,2.08,0,0,0,1.89-1.92l2-.22c.13,1.54,0,3.3,1.83,4,7,2.42,13.37,7,21.31,6,0,1.95,0,3.9.05,5.86.35,2.33-1.39,3.86-2.24,5.73-2.32,1.42-2,2.66.24,3.79,1.93,1.57,3.84,3.17,5.78,4.72,11.95,9.56,22.66,20.44,33.24,31.43,3.49,3.62,7.24,5.44,11.85,4.21,7.71-2.06,15.61-1.74,23.69-2.07.91-4.38.89-8.71,4.53-11.4,2.78,0,3.84,1.26,4,4.09s-3,5.09-1.54,8.29c1.34,1.7,3.42,1,5.23,1.29l11.8,7.72c4.14-2.59,8.33-4.82,13.33-4l.05,0c-.16,1.55-2,2.54-1.14,5.6.31,1.24,4.26-1,4.56,2.24-1.79,3.74-7.64,2.83-8.89,7.39.54,3.06,2.66,4,5.45,4,.07.65.15,1.29.23,1.94a1.67,1.67,0,0,0,1.69,1.82c3.14,2.5,3.76,6.07,4.12,9.74a1.68,1.68,0,0,0,1.69,1.85l.23,2a1.74,1.74,0,0,0,1.68,1.9c5.78,18.28,9,36.89,7.83,56.17-.43,7-.14,14.08,0,21.11.07,4.8-2.76,9-2.1,14,.74,5.67.48,5.8,7.73,7A2,2,0,0,0,531,913.9l2,.08c.93,5.48-2.19,10.41-2.1,15.77l-7.72-.08c-3.74-3.06-4.56-2.79-5.6,1.87-.91,4.19-1,8.83-2.93,12.46-2.25,4.18-1.44,10.16-6.88,12.55,0-2.54-.84-5.59.25-7.53,3.51-6.24.54-10.63-4-15.1,1.72-.28,2.65-.37,3.55-.59,6.69-1.62,8.72-4.62,7.89-11.59-.53-4.54-17.52,75.49-23.12,75.44-2.09,0-30.61-5.89-29.32-8.48,4.48-9,16.29-48.7,26.12-70.7,5.49-16.93,4.46-41.88,3.09-62.89-1.19-18.29-6.16-35.41-17.85-50a11.69,11.69,0,0,0-10-4.64c-4.72.23-9.33,0-14.14,1.43-5.31,1.63-10.94,3.25-16.83,2.57-50.47,43.9-83.47,51.33-87.64,53.82-6.09-1-18.25-.45-19.25-8,2.82,0,87.49-50.36,88.44-53,.48-.31,1.08-1.65.6-2a13.88,13.88,0,0,0-2.68-5.7c-6.91-8.07-16.09-13.68-23.29-21.43-7.84-8.43-17.43-14.21-24.76-22.76-1.76,2-3.46,3.4-7.88,4.93-8.86,4.85-19.12,4.41-28.81,5.69-17.9,2.37-35.95,3.62-53.81,6.21-5.68.82-11.42.93-17,1.92-10.33,1.84-15.81,7-26.3,7.31-3.16,1.1-2.8,1.27-2.94,3.32,0,3.81,3.84,6,3.87,9.81-1.63,2,3.46,47.86,6.57,74.93.21,1.89,7.89,9.38,7.79,11.1-.06,1.1,5.22,4.87,7.8,5.19,6.15.77-16.43,7.65-20.45,3.73-16.14-15.73-21.28-98.9-21.32-102.08,0-3.58.18-6.07-1-9.63-6.13,0-41.52,2-51.31,1.88-5.08-.08-10.09.09-14.92,1.85-4.56-.1-9.22.69-13.56-1.62-.25-.13-1.22,1.06-1.85,1.64-5.77,0-33.46-.82-67.49-1.95" transform="translate(15 26.54)"/><path class="cls-7" d="M380.12,1112.47c7.64-7.49,18.32-15.89,28-20.41,3.68-1.72,4.09-5.11,4.51-7.68.73-4.51,2.52-8.36,4.48-12.27,1.13-2.18-2.82-3.77-4.19-4.46-.21-2-5.48-5.66-1.23-7.22,3-1.08,1.63-4.73,4.39-5.84,2.51,1.33,6.12,2.53,9,4.06,8.34-12.94,17-25.39,24.56-38.49,4.71-8.19,8-17.26,11.26-26.18a108.2,108.2,0,0,1,4.48-10.42,2.13,2.13,0,0,0,1.75-2.07l.05-.1c3.31,1.32,1.14,6.4,4.9,7.3,6.92,1.65,12.86,6.4,20.3,6.37,0,2.86,0,5.61-1.31,8.41-4.32,9.48-8.31,19.12-12.44,28.69a11,11,0,0,1-1,1.61c-10.46,16.32-21.34,32.41-30,49.75-2.5,5-3,3.62,0,10.33,6.1,2.35,6.57,11.93,11.67,15.64,4.63,3.38,8.71,7.57,13.57,10.52,14.4,8.73,29.21,16.72,44.25,24.34,11.43,5.78,23.4,9.41,35.66,12.53,18,4.6,35.92,9.68,54.26,12.85,10,1.73,20,3.49,30,4.28,8.93.71,18,.1,27,.07,3.64.41,7.42-.57,10.42.5,2.88,4-1,7.12-.08,10.33,1.34,4.51-1.75,4.44-4.55,4.86l-42.38,0a63.7,63.7,0,0,0-21.34-3.82l-3.74-.1c-9.05-1.8-17.61-5.88-27.06-5.81l-3.75-.18c-.68-2-2.34-1.86-4-1.75l-3.75-.18c-.68-2-2.34-1.85-4-1.75l-3.74-.18c-.69-2-2.35-1.85-4-1.75l-3.75-.17c-.68-2-2.34-1.86-4-1.75-1.88-.69-3.43-2.39-5.71-1.86-.67,0-19.35-5.92-27.62-9.89-6.84-3.28-13.15-7.72-20.67-9.54-1.32-3.79-4.39-4.08-7.72-3.85-.33-.45,0-2-1.32-.83l1.36.79c.32,2-1,4.68,2,5.79a10.41,10.41,0,0,0,2,7.66,1.9,1.9,0,0,0,1.71,2l.27,3.75c-.55,2.81,3.76,9.07,3.9,11.55-3.65,6.26-9.73,6.08-15.79,6a10.91,10.91,0,0,0-2.09-7.73,1.89,1.89,0,0,0-1.72-2c-.09-1.25-.17-2.5-.25-3.76.54-2.81-.85-4-3.49-4.1-.6-3.81-2.62-7.34-2.24-11.35a1.93,1.93,0,0,0-1.72-2,13,13,0,0,0-.16-1.87c.17-2.81.7-5.84-3.6-6-.1-1.85-.21-3.71-.31-5.57a1.91,1.91,0,0,0-1.73-2c0-.63-.05-1.25-.12-1.87a2.16,2.16,0,0,0-1.73-2.09,5.36,5.36,0,0,0-4-5.62c-.15-1.12-5,5.83-6.1,5.74-2.41-3.53-6.22-7.44-8.93-10.66-3.12-3.69-3.77-7-8-5.83-10.13,2.85-67.5,74.36-76.79,72.85-.75-.12-21.22-23.88-20.84-24.58,4-7.39,38.54-44.49,47.09-53" transform="translate(15 26.54)"/><path class="cls-10" d="M233.66,879.51c4.41-4.06,9.44-6.46,15.61-5.82a3.54,3.54,0,0,0,3,1.92c5,.75,9.43-1.07,13.85-2.7,23.93-8.85,48.26-16.64,71.87-26.37,1.59.07,3.25.27,3.77-1.85l5.81-2.11c5.23,3.14,14.71,1.89,14,7.49-1.84.11-12.05,6.32-13.9,6.44a1.85,1.85,0,0,0-1.95,1.75c-11.35,5.55-23.49,9-35.29,13.4-13.38,5-26.82,9.77-40.24,14.63s-26.17,5.11-36.57-6.78" transform="translate(15 26.54)"/><path class="cls-7" d="M129.67,771.55c.63-.58,1.6-1.77,1.85-1.64,4.34,2.31,9,1.52,13.56,1.62,0,14.9,1.28,27.33,2.32,40.93.41,5.28,1.65,10.62,1.5,16-.14,4.95-3.11,8.26-7.16,8.54-4.49.31-8.16-3.12-8.11-8.53.11-14-1.86-51.5-4-56.93" transform="translate(15 26.54)"/><path class="cls-11" d="M347.72,1019.86a1.85,1.85,0,0,1-2-1.74,2.16,2.16,0,0,1,2,1.74" transform="translate(15 26.54)"/><path class="cls-12" d="M467.15,981.49a2.13,2.13,0,0,1-1.75,2.07,2.16,2.16,0,0,1,1.75-2.07" transform="translate(15 26.54)"/><path class="cls-4" d="M152.47,1039.31c1,1.57,1.92,2.2,3.77.86,4.51-3.27,4.58-3.19,7,2.26a3.83,3.83,0,0,0,2.71-2.38c3.11-6.5,6.2-7.83,12.56-5.1,3.52,1.51,7.33,2.82,10.24,5.16,12.41,10,27.52,14.65,41.58,21.3A60.65,60.65,0,0,1,246,1071.9c9.86,9.2,19.27,18.89,28.66,28.58a136.45,136.45,0,0,1,10.4,12.46c2.87,3.76,3.44,8.3,2.6,12.79-1.44,7.74-9.74,10.69-15.1,5-10.78-11.46-23.48-20.82-34.33-32.17a97.4,97.4,0,0,0-43.34-26.8c-9.1-2.7-17.92-6.36-27-9.14-2.53-.78-4.48-2.28-6.92-2.82.07-3.77,3.38-7,.12-10.69-4.08,1.55-2.39,7.59-6.63,9.44-4-4.35,3.25-8.72-.64-12.65-3.2-1.72-2.59,3-4.83,3.06,0-2.15.06-4.29,0-6.43-.06-2.45,1.41-3.13,3.49-3.22" transform="translate(15 26.54)"/><path class="cls-9" d="M179.86,1021.71c-1.63.22-3.24.38-3.88-1.68,3.13-3.68,3.45-.89,3.88,1.68" transform="translate(15 26.54)"/><path class="cls-9" d="M164.36,1022c-.58,2-2.24,1.89-3.82,1.91.59-2,2.25-1.87,3.82-1.91" transform="translate(15 26.54)"/><path class="cls-9" d="M170.12,1020.06c-.13,1.07-.65,1.72-1.83,1.61a2,2,0,0,1,1.83-1.61" transform="translate(15 26.54)"/><path class="cls-9" d="M148.67,1054.77a1.65,1.65,0,0,1-1.63,1.89,2,2,0,0,1,1.63-1.89" transform="translate(15 26.54)"/><path class="cls-9" d="M139.31,1058.4a2,2,0,0,1-2-1.69,2,2,0,0,1,2,1.69" transform="translate(15 26.54)"/><path class="cls-9" d="M146.88,1058.58l-.83,1.39-.92-1.38h1.75" transform="translate(15 26.54)"/><path class="cls-4" d="M687,1190.47c24.37-2.9,56.44,0,70.39,20.81,37.58,56.17,81.57,162.23,81.53,162.64-18.31.07-243.44,0-243.44,0-18.17-22.56-22.6-22.22-36.13-29.36-5.73-5.56-66-148.25-63.52-191.67,7.52,1.82,8.39,4.46,15.23,7.74,7.92,4.28,94,39.59,175.94,29.84" transform="translate(15 26.54)"/><path class="cls-4" d="M425.13,1108.44c6.19,3,41.05,29.15,41.15,31,24.85,119.23,84.36,234.47,84.36,234.47H264.18c-.51-10.89-2.31-20.88-12.65-22.68,0,0,2-11.19.17-16-2.44-6.61-10.26-7.73-4-13.74,6.43-6.21,12.4-12.84,19.73-18.18,8.89-6.49,14.36-16.18,20.41-25.12,18.34-27.11,109.65-170.62,137.34-169.71" transform="translate(15 26.54)"/><path class="cls-4" d="M21.74,1080l-5.74-.58c-.26-11.82,7.61-22.4,5.69-34.3,15.41-3.89,27.22-5.74,34.66-1.93a1.91,1.91,0,0,0,2,1.69c10.4,1.33,20.27,4.81,30.23,7.8,4.42,1.32,9.43,1.09,13.66,4.38-5.3,4.9-11.93,6.48-17.93,8.47-13.2,4.39-26.21,9.36-39.76,12.8-7.71,2-17,1.67-22.82,1.67" transform="translate(15 26.54)"/><path class="cls-4" d="M165.27,1373.92s42.58-22.64,55.88-31.41c17.44,2.22-11.66,31.15-11.66,31.15Z" transform="translate(15 26.54)"/><path class="cls-13" d="M58.36,1044.9a1.92,1.92,0,0,1-2-1.7,2.09,2.09,0,0,1,2,1.7" transform="translate(15 26.54)"/><path class="cls-4" d="M516.19,931.12c1.94-.41,28.13,4.57,33.6,5.59,15.12,2.81,30,7.23,45.4,8.41,3.15.25,6.82.92,9.19,3.84-.08,3.14,0,7.77-.13,10.91-1.1,16.84-5,50.42-4.11,50.67.62,5.14,4,8.51,7.46,11.91,7,6.93,18.16-2.33,17.19-5.47-3.85-2.36-8.87-3.54-10.94-8.43l-.09-2.09c-.8-12.71,2.3-38.22,6.11-55.71,8.28,3.19,19.54,4.61,28.57,7.08,41.73,11.41,147.83,21.93,150.38,21.89,8.45,13.77,17.77,94.41,8.07,146.43-.06,1.24-5.6,22.91-5.87,25,0,.62,0,1.24-.1,1.86-5,5.19-5,12-5.64,18.45-1.51,15.14,3,29.35,6.81,43.75,3.5,13.23,78.52,157.57,78.52,158.78-1.6,0-12.82-.12-14.42,0-2.55-3.2-14.29-29.77-20-39.11-9.3-15.18-17.76-30.77-25.62-46.67-6-12.15-12.69-24-18.91-36s-23-64-54.92-72.84C700.92,1166.68,668,1177.07,637,1174c-10.06-.79-20.06-2.56-30-4.28-18.34-3.17-36.25-8.25-54.26-12.85-12.26-3.12-24.23-6.75-35.66-12.53-15-7.62-29.85-15.61-44.25-24.34-4.86-3-8.94-7.14-13.57-10.52-5.09-3.71-10.8-10.17-16.91-12.53,1.32-6.38,2.7-8.47,5.2-13.44,8.69-17.34,19.57-33.43,30-49.75a11,11,0,0,0,1-1.61c4.13-9.57,8.12-19.21,12.44-28.69,1.28-2.8,24.2-68.16,25.1-72.35" transform="translate(15 26.54)"/><path class="cls-4" d="M816,1156.35c.45-2,5.07,4.34,5.17,7.32.21,6.58,33.21,48,45.48,60A36.72,36.72,0,0,0,885.55,1234a44.52,44.52,0,0,0,4.58,1.16c11,1,17,8.35,22.17,17,14.78,24.84,31,48.77,46.57,73.1,9.53,14.91,22.22,33.36,32.06,48.79-29.94,0-58,0-87.66,0-3.89-3.65-39-73.31-52.9-101.23-1.26-2.53-19.1-41.5-22.09-48.28-3.54-8-20-34.29-12.29-68.06" transform="translate(15 26.54)"/><path class="cls-4" d="M725.77,779.25c4.81-6.48,12-8.89,19.56-11.33,11.66,7,15.32,19.65,20.72,31,1.2,2.53,2.24,5.23,3.45,7.81,10,21.31,20.4,42.41,29.66,64,4.3,10.06,6.52,21,9.32,31.69,6.88,26.22,13.56,52.48,20.29,78.74,2.66,10.37,5.36,20.73,7.85,31.14,2.43,10.18-2.56,17.77-12.37,19.19-.76-4.42-1.85-14.54-2-15.3-4.45-28.08-9.82-55.94-18.33-83.14-2.91-9.31-4-22.92-8.7-34.57-10.27-26.14-68.52-117.56-69.43-119.23" transform="translate(15 26.54)"/><path class="cls-4" d="M794.76,958.24c-6.08,0-67.24-3.57-81.52-6.9-9.2-2.15-45.1-8-45.57-9.3,8.16-3.42,26.22-7.8,34.38-11.23,14.89-6.26,29.83-12.4,44.64-18.82,5.47-2.37,11.92-3.8,15.32-9,2.16-3.31,5.16-4.48,8-6.29,13,15.58,21.64,48.05,24.7,61.56" transform="translate(15 26.54)"/><path class="cls-7" d="M648.44,957.83c-9.13-2.07-18.41-4-26.7-7.19-3.44,2.21-3,1.54-5-1.32-4.17-1-8.25-.51-12.32-.36-2.37-2.92-6-3.59-9.19-3.84-15.45-1.18-30.28-5.6-45.4-8.41-5.47-1-18.8-5.32-18.87-7-.09-5.36,3-10.29,2.1-15.77,3.84-2.08,7.58-2.21,11.86-.73,6.21,2.14,12.48,4.34,19.2,4.72a120,120,0,0,1,28.44,5c10.28,3.13,25.18,6.41,36.87,6.2.17,1.54-3.87,1.38-3.68,3.17a72.5,72.5,0,0,0,7.64,2.78c3,.76,3.67-1.4,3.87-3.79,1.85,0,3.71.1,5.56.1,3.75,0,5.72,1.83,5.92,5.57a15.9,15.9,0,0,0-1,1.32c-.05.09.24.58.38.58,3.54.07,6.76.67,9,3.94s1.73,3.94-3.16,6.07l-2.84-.66c-1.25-1.63-2.49-3.26-3.74-4.91-1.75,1.8-.59,3.69-.53,5.51a9.88,9.88,0,0,1-1.63.15c-1.44.06-3.5-.78-3.7,1.51s2,1.8,3.39,2c3.16,2.54,6.33,2.73,9.52.06,2.28,0,1.71,4.66,5.62,2.79a30.33,30.33,0,0,1,2-10.7c2.39-5.75-4.51-6.73,1.23-5,2.58.79-3.72,20.57-14.71,18.08m-4.2-15.72-.6-.39-.06.64Z" transform="translate(15 26.54)"/><path class="cls-7" d="M802.09,1215.17c-3.8-14.4-8.32-28.61-6.81-43.75.64-6.46,4-28.82,9-34-.42,8.15-6.38,31.68-5.25,39.95.25,1.83-.46,3.81,1.12,5.93,4.87,1.79,4.89,9,9.36,6.83.52-.26-1.54,44-7.4,25.05" transform="translate(15 26.54)"/><path class="cls-10" d="M95,714l-15.35,0c-2.89,1.65-8.72-56-7.75-64,.75-6.24-2.56-12.18-.49-18.6.69-2.15-1.55-5.13-4.41-6.69-3.34-1.83-3.25-4.93-2-8.09,2.23-5.63,2.29-10.85,1.72-17-.92-10-1.64-19.79-.83-29.8.32-4.06.87-8.34-1.87-12,2.14-.09,3.67.42,3.85,3,.22,3.13-.64,6.36.88,9.75,2.89,1.34,6.07.37,8.95.52,3.41-2.37.49-6.42,2.92-8.94,2.35-.5,4.88-1.72,6.63,1.31-5.23.29-5.05,4.54-3,6.56,5.16,5.05,3.23,10.68,2.06,15.87-.79,3.51.87,24.08.87,31,0,2.84,1.17,4.54,3.47,6.24,5.64,4.17,5.51,4.34.52,9.74-3,3.23-3.21,11.64.3,13.06,5.23,2.11,14.06,5.86,11.93,8.72s-3.06,1.09-2,4.6c1.15,3.92-2.75,50.83-6.37,54.67" transform="translate(15 26.54)"/><path class="cls-12" d="M73.85,755.87c-4.75.06-9.49.09-14.23.18-2.49,0-3.2-1.53-3.44-3.59,4.75,0,9.5-.06,14.25-.15,2.48,0,3.26,1.43,3.42,3.56" transform="translate(15 26.54)"/><path class="cls-12" d="M85.14,742.61c2.39,3.23,2.16,6.94,2,10.64-.1,2.57-1.81,2.85-3.83,2.7.68-1.6,1.34-2.88.59-5-.89-2.59-2-6,1.23-8.32" transform="translate(15 26.54)"/><path class="cls-12" d="M83.21,725.28c2.65,3.56,2.16,7.62,1.88,11.65-4.44-4.33-4.71-6-1.88-11.65" transform="translate(15 26.54)"/><path class="cls-4" d="M89.32,645c.71-3.72-1.1-8.85,1.89-12.08,5-5.4,5.12-5.57-.52-9.74-2.3-1.7-3.47-3.4-3.47-6.24,0-6.95-.91-12.86-1.14-20-.12-3.88-.52-7.5.27-11,1.17-5.19,3.1-10.82-2.06-15.87-2.05-2-2.23-6.27,3-6.56l3.78.18c.7,1.94,2.35,1.76,3.93,1.75l3.78.18c.71,1.93,2.36,1.76,3.94,1.74l3.78.18c.72,2,2.37,1.77,4,1.73,14.73,3.52,29.5,6.87,44.17,10.6,15.24,3.86,30.37,8.14,45.58,12.1,2.13.56,7.23-5.65,9.46-5.49,2.51,4.09,3.37,6.66,6.73,7.33,0,3.89,50.13,22.26,48.93,25.63-2.13,6,10.88,65.26,10.72,71.24-.13,5.12-29.05,10.36-28.77,15.46.82,14.56-27.25,15.67-23.32,30.13.31,1.12-20.61-24.27-21.08-23.15-2.91,6.8-8.32.56-8.87,7.49-.2,2.54-12-2.92-9.87-2.9,0,14.76,34.2,21.76,34.21,36.51a2.19,2.19,0,0,0-1.91,1.78c-3.84-.05-7.34-2.5-11.32-1.57-11.2,0-22.41-.08-33.62-.17-2.73,0-5.29,0-5.19,3.74-18.61,0-37.21.1-55.81.07-9.61,0-11-1.67-11.87-10.79C90.34,660.74,88,652,89.32,645" transform="translate(15 26.54)"/><path class="cls-7" d="M214.42,712.8c.55-6.92,2-115.15,2-119-3.36-.67-14.92-6-13.38-10.25,2.09-5.8.92-12.59,4.9-17.63,4.91-1,9.32-.77,13.22,1.84,2.31,1.54,4.73,1.65,7.3,1.58,1.59,0,3.64-.6,4.71.16,7.14,5.12,15.49,3.06,23.21,4.53,4.78.92,9.92,1,14.46,3.94,3.84,2.46,8.74.52,13.14,1.1.17,4.45-2,8.57-.28,13.47s-3.46,10.5-8.58,11.32a45.05,45.05,0,0,1-6.58.12c-1.6,0-3.43.49-4.77-.11-8.1-3.64-17.18-.06-25.29-3.62a3.45,3.45,0,0,0-4.19,1.27c-1.67,5,3.33,9.35,1.27,14-1.33,3-.66,5.21,0,8a22.77,22.77,0,0,1,.05,10.48c-.95,3.61-1.35,6.14,1.39,9.38s-.65,6.18-3.14,9c4.21,4.62,5.93,9.61,2,15.16-1.11.18-.1,1.11-.29,2.22.38,6.6-2.48,12.93,0,19.51a11.8,11.8,0,0,1-1.62,11v5.87c-.05,1.56.94,7.92-1.06,8.51-4.55.16-18.59.75-18.39-1.8" transform="translate(15 26.54)"/><path class="cls-11" d="M95,565.39c-1.58,0-3.23.19-3.93-1.75,1.62-.11,3.28-.33,3.93,1.75" transform="translate(15 26.54)"/><path class="cls-11" d="M102.72,567.31c-1.58,0-3.23.19-3.94-1.74,1.62-.12,3.29-.33,3.94,1.74" transform="translate(15 26.54)"/><path class="cls-11" d="M110.45,569.22c-1.59,0-3.24.22-4-1.73,1.62-.11,3.25-.25,4,1.73" transform="translate(15 26.54)"/><path class="cls-4" d="M765.33,889.09a2.85,2.85,0,0,1-3,1.91c-4.63-.48-8.61,1.21-12.83,2.92-10.89,4.42-21.49,9.42-32.22,14.16C694.88,918,672.23,927.41,649.67,937c-.2-3.74,7.19-1.88,3.44-1.87-1.85,0-11.23-1.63-13.08-1.67,0-1.22-.21-16.78-.06-20.29.44-10,1.45-21.07-6-28.36a17,17,0,0,1-1.84-6.31c-1.46-10.61-3.39-21.15-3.87-31.88a19.35,19.35,0,0,0-1.29-4.51c-1.23-3.92-3.8-5.85-8-5s-4.15,4.07-4.3,7.43c-.42,9.57,1.72,18.9,2.91,28.27.93,7.37,1.4,21.91,6.77,23.94,3.69,2.56.64,30.43.6,32.3-12.31-.51-20.1-3.63-31.5-6.12-9.7-2.11-62.54-10.68-63.61-10.76-7.25-1.21-7-1.34-7.73-7-.66-5,1.71-28.13,2.14-35.14,1.16-19.28-2.06-37.89-7.83-56.17a2,2,0,0,0-1.69-1.9l-.22-2a2,2,0,0,0-1.69-1.85c-.36-3.67-1-7.24-4.12-9.74a2,2,0,0,0-1.69-1.82l-.24-1.94c-1.11-4.62,2.06-6.54,5.48-7.39S551.5,774,555,771.52c.34,2,8.59,56.46,12.78,67.05,2.84.76,4.52.07,4.65-3,.3-7.38-8.78-51.31-10-65.44,4.87-6.41,63-31.35,74.35-37.7A27.55,27.55,0,0,1,648.39,729c7-.69,12.2,2.9,17.57,6a65.17,65.17,0,0,1,22.44,21.44c6.05,9.21,13.19,17.71,19.89,26.49,1.15,1.51,55.73,100.48,57,106.16" transform="translate(15 26.54)"/><path class="cls-4" d="M544.56,704.34c8.67,1.86,16.34,1.7,24.67,1.61,21.8-.22,43.66-.29,65.42.91,19.54,1.07,39.05.57,59,1.49,4.74-9.92,9.49-19.61,14-29.39,9.25-20,18.25-40.09,27.63-60a18.75,18.75,0,0,0,1.1-13.8c-5.47-20.32-12.25-44.49-17.49-64.92,3.66-.85,8.54-2,12.37-3,2.78,5.7,3.94,15.3,5.78,21.45,5.35,17.84,7.81,36.43,13.3,54.27a11.28,11.28,0,0,1-.55,8.41c-2.61,5.44-4.72,11.11-7.36,16.54Q722,680,701.2,722.07c-2.06,4.15-2,9.62-7.17,12.21-4.59-2.58-8-6.83-12.24-10.12-11.35-8.91-23.83-12.6-38-12.43-24.1.29-44,11.19-68.14,11.21-2.49-1.14-10.31-5.48-13.44-3.74-5.52,3-7.74-8.86-13.62-4.26-.15.12-2.08-6.12-2.56-6.52-1-.83-1.37-2.76-1.43-4.08" transform="translate(15 26.54)"/><path class="cls-7" d="M544.37,705.19a4.28,4.28,0,0,0,1.63,3.23,9.77,9.77,0,0,0,1.48,1c7,3,25.07,11.65,92.3,2.45,4.08,4.41-44.42,10.28-42.68,14.59,4.3,1.91,9.25.08,15.38,1.48-7.42,5.09-14.2,8.68-21.73,10.89-3.57-2.34-7.12-5.23-11.34-5.65-6-.61-11.07-.9-16.39,1.1-6.9,2.6-13.31-1.79-18.66-3.63-2.33-.8-3.87-3.91-6.94-4.52-.82,2.61-1.65,5.22-2.34,7.41,1.5,3.1,4.74,4.21,5.25,7.32-1.34,2.86-2.07,7.46-5.39,7.16-5.65-.5-8.28,3.83-12.42,5.55-5.22,2.17-9.64,6.48-15.69,6.38-6.42-.11-11.46,3.82-17,6-3,1.17-8.09.81-9.14,5.73-1.81-.31-3.89.41-5.23-1.28-1.47-3.21,1.67-5.37,1.54-8.3s-1.19-4.13-4-4.09c.64-2,2.84-3.62.83-6.07a2.48,2.48,0,0,1,1-4c3.47-1.2,1.92-18.31,5.84-16.77,8.78,3.45,6.16-5.06,13.56-7.52,3.39-1.13,6.36-5.63,7.88-10.21,1.31-4-6.58-6.72-2.26-7.41,1.37-.22,15.62,4.82,15.7,1.94-3.32-2.9,6.52,10,7.64,4.06,1.2-4.35,4.65-7.13,7.4-10.37,1.28-1.51,2.51-2.84,2-5l2-.15Z" transform="translate(15 26.54)"/><path class="cls-4" d="M723.72,511.65c-4.75.05-9.5.15-14.43-.95-.88-3.51-2.3-6.81-2.46-10.18-.43-9-4-16.17-10.37-22.58-12.77-12.86-25.05-26.19-37.3-39.08-2.82-1-4.3,1.87-6.62,1.47-.2-2.88,0-5,3.23-6.85,3.65-2.07,6.09-3.1,5.28-8.37,1.79-1.25,4.15-4.18,6.48-5.82,7.15,9.44,17.09,15.18,25,23.34,8.44,8.73,16.83,17.57,25.86,25.66,6.52,5.84,7.68,13.68,6.82,20.66-.93,7.6-.81,15.16-1.47,22.7" transform="translate(15 26.54)"/><path class="cls-4" d="M480.69,771.65c1.05-4.92,0-15.74,11.93-21.22,6.2-3.15,18.1-5.81,28.34-10.58,11.91-7.54,21.08-19.92,23.41-19.12,5.35,1.84,20.18,3.7,28.35,5.12,6.13,1.3,43.52.4,49.53,1,4.22.43-125.62,49.93-129.76,52.52l-11.8-7.72" transform="translate(15 26.54)"/><polygon class="cls-14" points="753.35 309.27 753.58 309.9 752.98 309.83 753.35 309.27"/><path class="cls-4" d="M232,709.9c.48-2.69.64-103.46,2.31-108.42a3.45,3.45,0,0,1,4.19-1.27c16.65-1.13,122.7,5,162.87,14.4-1.16,5.69-8.18,16.64-9.29,22.11-.16,2.81.07,5.53-1.21,8.33-2.25,4.94-21.75,61.84-22,62.89-4.47,8.27-11,15.42-13.58,24.71-.41,1.48-1.36,1.83-2.64,2.24-6.5,2.1-12.85,4.85-19.66,5.74-11.58,1.52-23.25,2.59-34.78,4.27-12.45,1.81-25.11,2.11-37.42,5.16-3.63.9-7.65.27-11.49.34-3.07-3.8-3.46-.94-4,1.6l-7.64.08c-1.23-2.69-3.71-1.4-5.67-1.77L232,709.9" transform="translate(15 26.54)"/><path class="cls-4" d="M535.72,715.86c-.07,2.87-15.68,16.54-18.71,18.42-12,7.47-24.39,5.17-35.5,13.09-3.44,2.45-12.1,17.63-13,22-8.08.33-16,0-23.69,2.07-4.61,1.23-8.36-.59-11.85-4.21-10.58-11-21.29-21.87-33.24-31.43-1.94-1.55-3.85-3.15-5.78-4.72-.08-1.26,5.39-15.6,7.39-18.68,2.74-8.27,4.05-6.46,4.26-16l0,.06c2.94-.58,3.29-3.62,5.48-5.8,14.55,0,29.56-.61,44.48.26,54.91-.47,66.47,16.52,80.21,24.93" transform="translate(15 26.54)"/><path class="cls-4" d="M427.51,626.44c4.44-.13,7.15,2,10,6.08,4,5.69,11,8.29,16.87,12.07,7.43,4.82,14.73,10,22.59,14,6.48,3.32,8.53,7.94,7.64,14.65a48.24,48.24,0,0,0,0,5.48c-12-2.08-23.09-5.21-34.73-6-11.29-.78-22.73-.47-34.34-1.86,0-7.47,8.35-36.66,12-44.43" transform="translate(15 26.54)"/><path class="cls-4" d="M500.08,661.75c3-1.66,8.21-2.88,8.64-5,1.48-7.51,8.61-12.24,8.8-20.21.15-6.08,3.45-12,.12-18.28-.89-1.67-5.88-96.67.58-93.71-1.62,9.45,6.13,107.73,6,116.9-.06,6.36,1,11.23,5.69,14.56,5.13,3.65,10.94,6.51,15.49,11.85-2.46,7.16-6.56,13.53-10.31,20.08-.14.24-7.09-4.48-7-4l-.45,1.74c4.26,4.9,14.94,19.21,22.15,22.21,1.71.71-2.25,1.56-2.36,1.57-28.75-22.42-32.28-21.74-37.92-23.93-4.69-1.16-8.08-2.57-11.39-2.77a2.16,2.16,0,0,0-1.72-1.77c0-1.87.07-3.74.1-5.62,2.1-.16,3.58-.92,3.49-3.38-.09-2.18-.09-4.36-.13-6.53.05-1.23.1-2.45.16-3.67" transform="translate(15 26.54)"/><path class="cls-15" d="M652.6,440.29c-2.45,3.25-6,4.71-9.71,5.91.92-5.76,5.11-6.18,9.71-5.91" transform="translate(15 26.54)"/><path class="cls-4" d="M411.67,802.33c-2.6.79-20.23,17.12-73.68,44.21-23.61,9.73-47.94,17.52-71.87,26.37-4.42,1.63-8.94,3.72-13.85,2.7-8.26-1.71-13-9.87-14.59-14.29-1.69-4.65-5-20.93-6.75-29.43-.41-2.08-6.51-54.58-6.54-58.39.05-2.77-.65-5.58,1.79-5.7a210.65,210.65,0,0,0,31.14-3.68c5.58-1,11.32-1.1,17-1.92,17.86-2.59,35.91-3.84,53.81-6.21,9.69-1.28,30.36-4.28,36.39-11,7.33,8.55,17.22,14.68,25.06,23.11,7.2,7.76,16.38,13.36,23.29,21.43,1.44,1.68,3.54,2.84,4.21,5.15,0,.61,0,1.23,0,1.85-.95,2.69-2.49,3.49-5.41,5.77" transform="translate(15 26.54)"/><path class="cls-11" d="M166.29,758c-.09-3.78,2.47-3.76,5.2-3.74,11.21.09,22.41.12,33.62.17C205,758,202.43,758,199.72,758c-11.14-.07-22.28,0-33.43-.06" transform="translate(15 26.54)"/><path class="cls-7" d="M395.89,715.71a14.36,14.36,0,0,0,3.71-9.88c-.05-4.7,11.88-29.75,15.9-31.61-.21,9.53-13.91,39.89-19.56,47.35,0-2,0-3.91-.05-5.86" transform="translate(15 26.54)"/><path class="cls-11" d="M232,750.31c2,.37,4.44-.92,5.67,1.77-3.68,3.11-4.51,2.85-5.67-1.77" transform="translate(15 26.54)"/><path class="cls-11" d="M245.32,752c.51-2.54.9-5.4,4-1.6-.7,2.07-2.33,1.84-4,1.6" transform="translate(15 26.54)"/><path class="cls-11" d="M216.43,756a2.17,2.17,0,0,1,1.91-1.77,1.77,1.77,0,0,1-1.91,1.77" transform="translate(15 26.54)"/><path class="cls-9" d="M511.89,808.17a2,2,0,0,1,1.69,1.85,1.68,1.68,0,0,1-1.69-1.85" transform="translate(15 26.54)"/><path class="cls-9" d="M513.81,812a2,2,0,0,1,1.68,1.9,1.74,1.74,0,0,1-1.68-1.9" transform="translate(15 26.54)"/><path class="cls-7" d="M604.38,949c4.07-.15,8.15-.67,12.32.36,2,2.86-3.15,48.6-1.6,57.87,7.13,10.95,11.28,6,12.43,11,.85,11.32-12.9,11.21-19.93,4.27-3.44-3.39-6.84-6.76-7.46-11.9,0-6.48,5-48,4-52.15.08-3.15.17-6.29.25-9.43" transform="translate(15 26.54)"/><path class="cls-16" d="M762.16,768.66c14-4.6,27.54-5.51,41.65-4.59,4.42,7.79,6.2,16.62,8.35,25,6.6,25.65,13.78,51.14,20.59,76.73,4.46,16.75,9,33.47,13.56,50.21s9,33.45,13.55,50.15c3.92,14.26,6.83,28.81,11.81,42.77a17,17,0,0,1,.68,6.61c-.23,5.3-2.91,7.9-8.35,8.4-4.09.37-8.14-.34-12.27,1.44-3.47,1.5-6.54-.85-6.23-4.87,1.39-18.32-6.61-34.68-10.63-51.82-5.84-24.83-13.49-49.25-19.33-74.08-4.32-18.38-11.31-35.48-19.53-52.37-11.67-24-22.33-48.41-33.85-73.57" transform="translate(15 26.54)"/><path class="cls-7" d="M648.7,937c22.56-9.62,45.21-19,67.64-28.95,10.73-4.74,21.33-9.74,32.22-14.16,4.22-1.71,8.2-3.4,12.83-2.92,1.44.15,6.9-3.75,7.49-5,24.1-17.09,2.81,5.32,1.18,10.69-2.89,1.81-5.89,3-8,6.29-3.4,5.22-9.85,6.65-15.32,9-14.81,6.42-29.75,12.56-44.64,18.82-8.16,3.43-37.74,8.16-40.13,13.91a30.33,30.33,0,0,0-2,10.7c-3.91,1.87-3.34-2.76-5.62-2.79-.16-1.23-.32-2.46-.47-3.69,4.89-2.13,5.25-3,3.16-6.07s-5.42-3.87-9-3.94c-.14,0-.43-.49-.38-.58a15.9,15.9,0,0,1,1-1.32" transform="translate(15 26.54)"/><path class="cls-17" d="M266.78,130.15H57a1,1,0,0,0-1,1v40a1,1,0,0,0,1,1H266.78a1,1,0,0,0,1-1v-40a1,1,0,0,0-1-1" transform="translate(15 26.54)"/><rect class="cls-18" x="71.01" y="156.69" width="211.78" height="42" rx="1"/><rect class="cls-1" x="15" y="26.54" width="1555.3" height="1360.99"/><text class="cls-19" transform="translate(93.09 182.54)"><tspan class="cls-20">R</tspan><tspan x="11.93" y="0">ed Brick Building</tspan></text><g class="cls-21"><path class="cls-17" d="M505,67.75H328.1a1,1,0,0,0-1,1v40a1,1,0,0,0,1,1H505a1,1,0,0,0,1-1v-40a1,1,0,0,0-1-1" transform="translate(15 26.54)"/><rect class="cls-18" x="342.11" y="94.28" width="178.91" height="42" rx="1"/></g><text class="cls-19" transform="translate(366.78 120.13)">No<tspan class="cls-22" x="27.29" y="0">r</tspan><tspan x="35.27" y="0">th Slipway</tspan></text><g class="cls-21"><path class="cls-17" d="M250.7,192.56H57a1,1,0,0,0-1,1v40a1,1,0,0,0,1,1H250.7a1,1,0,0,0,1-1v-40a1,1,0,0,0-1-1" transform="translate(15 26.54)"/><rect class="cls-18" x="71.01" y="219.09" width="195.7" height="42" rx="1"/></g><text class="cls-19" transform="translate(93.09 244.94)">I<tspan class="cls-23" x="5.83" y="0">r</tspan><tspan x="13.05" y="0">on O</tspan><tspan class="cls-24" x="57.28" y="0">r</tspan><tspan x="64.52" y="0">e Slipway</tspan></text><g class="cls-21"><path class="cls-17" d="M244.32,317H57a1,1,0,0,0-1,1v40a1,1,0,0,0,1,1H244.32a1,1,0,0,0,1-1V318a1,1,0,0,0-1-1" transform="translate(15 26.54)"/><rect class="cls-18" x="71.01" y="343.58" width="189.31" height="42" rx="1"/></g><text class="cls-19" transform="translate(93.09 369.43)">Langdons <tspan class="cls-25" x="93.72" y="0">S</tspan><tspan class="cls-26" x="104.05" y="0">t</tspan><tspan x="111.18" y="0">eps</tspan></text><g class="cls-21"><path class="cls-17" d="M287.47,547.34H57a1,1,0,0,0-1,1v40a1,1,0,0,0,1,1H287.47a1,1,0,0,0,1-1v-40a1,1,0,0,0-1-1" transform="translate(15 26.54)"/><rect class="cls-18" x="71.01" y="573.87" width="232.46" height="42" rx="1"/></g><text class="cls-19" transform="translate(93.09 602.11)">Inner Quay <tspan class="cls-27" x="105.59" y="0">P</tspan><tspan x="116.64" y="0">on</tspan><tspan class="cls-26" x="140.25" y="0">t</tspan><tspan x="147.38" y="0">oons</tspan></text><g class="cls-21"><path class="cls-17" d="M244.32,608.43H57a1,1,0,0,0-1,1v40a1,1,0,0,0,1,1H244.32a1,1,0,0,0,1-1v-40a1,1,0,0,0-1-1" transform="translate(15 26.54)"/><rect class="cls-18" x="71.01" y="634.97" width="189.32" height="42" rx="1"/></g><text class="cls-19" transform="translate(93.09 663.25)">Chip Shop <tspan class="cls-28" x="98.86" y="0">W</tspan><tspan x="117.41" y="0">all</tspan></text><g class="cls-21"><path class="cls-17" d="M283,713.07H57a1,1,0,0,0-1,1v40a1,1,0,0,0,1,1H283a1,1,0,0,0,1-1v-40a1,1,0,0,0-1-1" transform="translate(15 26.54)"/><rect class="cls-18" x="71.01" y="739.61" width="227.98" height="42" rx="1"/></g><text class="cls-19" transform="translate(93.09 767.9)">Band <tspan class="cls-25" x="51.74" y="0">S</tspan><tspan x="62.07" y="0">tand Slipway</tspan></text><g class="cls-21"><path class="cls-17" d="M206.53,818.39H57a1,1,0,0,0-1,1v40a1,1,0,0,0,1,1H206.53a1,1,0,0,0,1-1v-40a1,1,0,0,0-1-1" transform="translate(15 26.54)"/><rect class="cls-18" x="71.01" y="844.93" width="151.53" height="42" rx="1"/></g><text class="cls-19" transform="translate(93.09 873.23)">South Quay</text><g class="cls-21"><path class="cls-17" d="M219,881.09H57a1,1,0,0,0-1,1v40a1,1,0,0,0,1,1H219a1,1,0,0,0,1-1v-40a1,1,0,0,0-1-1" transform="translate(15 26.54)"/><rect class="cls-18" x="71.01" y="907.63" width="164.04" height="42" rx="1"/></g><text class="cls-19" transform="translate(93.09 935.69)">Public <tspan class="cls-29" x="60.76" y="0">T</tspan><tspan x="69.88" y="0">oilets</tspan></text><g class="cls-21"><path class="cls-17" d="M237.81,943.79H57a1,1,0,0,0-1,1v40a1,1,0,0,0,1,1H237.81a1,1,0,0,0,1-1v-40a1,1,0,0,0-1-1" transform="translate(15 26.54)"/><rect class="cls-18" x="71.01" y="970.33" width="182.81" height="42" rx="1"/></g><text class="cls-19" transform="translate(93.09 998.66)">Harbour Office</text><g class="cls-21"><path class="cls-17" d="M256.06,1006.49H57a1,1,0,0,0-1,1v40a1,1,0,0,0,1,1H256.06a1,1,0,0,0,1-1v-40a1,1,0,0,0-1-1" transform="translate(15 26.54)"/><rect class="cls-18" x="71.01" y="1033.03" width="201.06" height="42" rx="1"/></g><text class="cls-19" transform="translate(93.09 1061.4)">Harbour Car <tspan class="cls-25" x="116.88" y="0">P</tspan><tspan x="128" y="0">ark</tspan></text><g class="cls-21"><path class="cls-17" d="M266,1069.19H57a1,1,0,0,0-1,1v40a1,1,0,0,0,1,1H266a1,1,0,0,0,1-1v-40a1,1,0,0,0-1-1" transform="translate(15 26.54)"/><rect class="cls-18" x="71.01" y="1095.72" width="211.02" height="42" rx="1"/></g><text class="cls-19" transform="translate(93.09 1123.93)">Fishermens <tspan class="cls-30" x="107.7" y="0">S</tspan><tspan class="cls-26" x="118.04" y="0">t</tspan><tspan x="125.17" y="0">o</tspan><tspan class="cls-24" x="137.11" y="0">r</tspan><tspan x="144.36" y="0">es</tspan></text><g class="cls-21"><path class="cls-17" d="M285.17,1131.89H57a1,1,0,0,0-1,1v40a1,1,0,0,0,1,1H285.17a1,1,0,0,0,1-1v-40a1,1,0,0,0-1-1" transform="translate(15 26.54)"/><rect class="cls-18" x="71.01" y="1158.42" width="230.16" height="42" rx="1"/></g><text class="cls-19" transform="translate(93.09 1186.74)">Fishermens Car <tspan class="cls-20" x="143.46" y="0">P</tspan><tspan x="154.63" y="0">ark</tspan></text><g class="cls-21"><path class="cls-17" d="M286.44,255H57a1,1,0,0,0-1,1v40a1,1,0,0,0,1,1H286.44a1,1,0,0,0,1-1V256a1,1,0,0,0-1-1" transform="translate(15 26.54)"/><rect class="cls-18" x="71.01" y="281.5" width="231.44" height="42" rx="1"/></g><text class="cls-19" transform="translate(93.09 307.34)">No<tspan class="cls-22" x="27.29" y="0">r</tspan><tspan x="35.27" y="0">th Quay Car </tspan><tspan class="cls-30" x="148.29" y="0">P</tspan><tspan x="159.43" y="0">ark</tspan></text><g class="cls-21"><path class="cls-17" d="M212.66,379.13H57a1,1,0,0,0-1,1v40a1,1,0,0,0,1,1H212.66a1,1,0,0,0,1-1v-40a1,1,0,0,0-1-1" transform="translate(15 26.54)"/><rect class="cls-18" x="71.01" y="405.66" width="157.65" height="42" rx="1"/></g><text class="cls-19" transform="translate(93.09 431.51)">No<tspan class="cls-22" x="27.29" y="0">r</tspan><tspan x="35.27" y="0">th Quay</tspan></text><g class="cls-21"><path class="cls-17" d="M225.17,486.25H57a1,1,0,0,0-1,1v40a1,1,0,0,0,1,1H225.17a1,1,0,0,0,1-1v-40a1,1,0,0,0-1-1" transform="translate(15 26.54)"/><rect class="cls-18" x="71.01" y="512.78" width="170.16" height="42" rx="1"/></g><text class="cls-19" transform="translate(93.09 538.63)">Clipper <tspan class="cls-25" x="70.5" y="0">S</tspan><tspan class="cls-26" x="80.83" y="0">t</tspan><tspan x="87.95" y="0">eps</tspan></text><g class="cls-21"><path class="cls-17" d="M1328.66,46.45H1012a1,1,0,0,0-1,1v40a1,1,0,0,0,1,1h316.71a1,1,0,0,0,1-1v-40a1,1,0,0,0-1-1" transform="translate(15 26.54)"/><rect class="cls-18" x="1025.95" y="72.99" width="318.71" height="42" rx="1"/></g><text class="cls-19" transform="translate(1044.12 98.83)">No<tspan class="cls-22" x="27.29" y="0">r</tspan><tspan x="35.27" y="0">th Quay Running Moorings</tspan></text><g class="cls-21"><path class="cls-17" d="M1442,130.15H1278.13a1,1,0,0,0-1,1v40a1,1,0,0,0,1,1H1442a1,1,0,0,0,1-1v-40a1,1,0,0,0-1-1" transform="translate(15 26.54)"/><rect class="cls-18" x="1292.13" y="156.69" width="165.89" height="42" rx="1"/></g><text class="cls-19" transform="translate(1314.53 185.07)">Fer<tspan class="cls-31" x="28.08" y="0">r</tspan><tspan x="36.28" y="0">y Slipway</tspan></text><g class="cls-21"><path class="cls-17" d="M1415.47,271.69H1278.13a1,1,0,0,0-1,1v40a1,1,0,0,0,1,1h137.34a1,1,0,0,0,1-1v-40a1,1,0,0,0-1-1" transform="translate(15 26.54)"/><rect class="cls-18" x="1292.13" y="298.22" width="139.34" height="42" rx="1"/></g><text class="cls-19" transform="translate(1314.48 326.6)">No<tspan class="cls-22" x="27.29" y="0">r</tspan><tspan x="35.27" y="0">th Pier</tspan></text><g class="cls-21"><path class="cls-17" d="M1539.3,484H1278.13a1,1,0,0,0-1,1v40a1,1,0,0,0,1,1H1539.3a1,1,0,0,0,1-1V485a1,1,0,0,0-1-1" transform="translate(15 26.54)"/><rect class="cls-18" x="1292.13" y="510.53" width="263.17" height="42" rx="1"/></g><text class="cls-19" transform="translate(1314.48 538.82)">Tide Ga<tspan class="cls-32" x="68.82" y="0">t</tspan><tspan x="75.95" y="0">e Cont</tspan><tspan class="cls-33" x="135.33" y="0">r</tspan><tspan x="142.59" y="0">ol </tspan><tspan class="cls-34" x="165.26" y="0">R</tspan><tspan x="177.19" y="0">oom</tspan></text><g class="cls-21"><path class="cls-17" d="M1415.47,554.76H1278.13a1,1,0,0,0-1,1v40a1,1,0,0,0,1,1h137.34a1,1,0,0,0,1-1v-40a1,1,0,0,0-1-1" transform="translate(15 26.54)"/><rect class="cls-18" x="1292.13" y="581.29" width="139.34" height="42" rx="1"/></g><text class="cls-19" transform="translate(1314.48 609.69)">New <tspan class="cls-35" x="46.59" y="0">S</tspan><tspan class="cls-36" x="56.92" y="0">t</tspan><tspan x="64.05" y="0">eps</tspan></text><g class="cls-21"><path class="cls-17" d="M1530.36,625.53H1278.13a1,1,0,0,0-1,1v40a1,1,0,0,0,1,1h252.23a1,1,0,0,0,1-1v-40a1,1,0,0,0-1-1" transform="translate(15 26.54)"/><rect class="cls-18" x="1292.13" y="652.06" width="254.23" height="42" rx="1"/></g><text class="cls-19" transform="translate(1314.54 680.34)">Harbour Office Slipway</text><g class="cls-21"><path class="cls-17" d="M1407.84,696.29H1278.13a1,1,0,0,0-1,1v40a1,1,0,0,0,1,1h129.71a1,1,0,0,0,1-1v-40a1,1,0,0,0-1-1" transform="translate(15 26.54)"/><rect class="cls-18" x="1292.13" y="722.83" width="131.72" height="42" rx="1"/></g><text class="cls-19" transform="translate(1314.54 751.19)">Bull Nose</text><g class="cls-21"><path class="cls-17" d="M1413.93,767.06h-135.8a1,1,0,0,0-1,1v40a1,1,0,0,0,1,1h135.8a1,1,0,0,0,1-1v-40a1,1,0,0,0-1-1" transform="translate(15 26.54)"/><rect class="cls-18" x="1292.13" y="793.6" width="137.81" height="42" rx="1"/></g><text class="cls-19" transform="translate(1314.54 821.79)">Fuel Be<tspan class="cls-37" x="65.77" y="0">r</tspan><tspan x="73.77" y="0">th</tspan></text><g class="cls-21"><path class="cls-17" d="M1413.93,837.83h-135.8a1,1,0,0,0-1,1v40a1,1,0,0,0,1,1h135.8a1,1,0,0,0,1-1v-40a1,1,0,0,0-1-1" transform="translate(15 26.54)"/><rect class="cls-18" x="1292.13" y="864.36" width="137.81" height="42" rx="1"/></g><text class="cls-19" transform="translate(1314.54 892.75)">Ice Be<tspan class="cls-38" x="54.06" y="0">r</tspan><tspan x="62.02" y="0">th</tspan></text><g class="cls-21"><path class="cls-17" d="M1415,908.6H1278.13a1,1,0,0,0-1,1v40a1,1,0,0,0,1,1H1415a1,1,0,0,0,1-1v-40a1,1,0,0,0-1-1" transform="translate(15 26.54)"/><rect class="cls-18" x="1292.13" y="935.13" width="138.83" height="42" rx="1"/></g><text class="cls-19" transform="translate(1314.54 963.33)">South Pier</text><g class="cls-21"><path class="cls-17" d="M1494.87,1245.06H1262.52a1,1,0,0,0-1,1v40a1,1,0,0,0,1,1h232.35a1,1,0,0,0,1-1v-40a1,1,0,0,0-1-1" transform="translate(15 26.54)"/><rect class="cls-18" x="1276.52" y="1271.6" width="234.35" height="42" rx="1"/></g><text class="cls-19" transform="translate(1294.11 1300.58)">South Dock <tspan class="cls-39" x="110.56" y="0">P</tspan><tspan x="121.63" y="0">on</tspan><tspan class="cls-32" x="145.24" y="0">t</tspan><tspan x="152.37" y="0">oons</tspan></text><g class="cls-21"><rect class="cls-17" x="926.78" y="1042.19" width="66.56" height="58.48"/></g><text class="cls-40" transform="translate(935.33 1066.39)">South </text><text class="cls-40" transform="translate(935.33 1087.99)">Dock</text><g class="cls-21"><rect class="cls-17" x="806.13" y="319.22" width="66.56" height="58.48"/></g><text class="cls-40" transform="translate(814.67 343.42)">No<tspan class="cls-41" x="24.56" y="0">r</tspan><tspan x="31.74" y="0">th</tspan></text><text class="cls-40" transform="translate(814.67 365.02)">Dock</text><g class="cls-21"><path class="cls-17" d="M1450.53,200.92h-172.4a1,1,0,0,0-1,1v40a1,1,0,0,0,1,1h172.4a1,1,0,0,0,1-1v-40a1,1,0,0,0-1-1" transform="translate(15 26.54)"/><rect class="cls-18" x="1292.13" y="227.46" width="174.4" height="42" rx="1"/></g><text class="cls-19" transform="translate(1314.54 255.77)">I<tspan class="cls-42" x="5.83" y="0">r</tspan><tspan x="13.05" y="0">on O</tspan><tspan class="cls-43" x="57.28" y="0">r</tspan><tspan x="64.52" y="0">e </tspan><tspan class="cls-44" x="80.65" y="0">S</tspan><tspan class="cls-32" x="90.97" y="0">t</tspan><tspan x="98.1" y="0">eps</tspan></text><g class="cls-21"><path class="cls-17" d="M1427.55,342.46H1278.13a1,1,0,0,0-1,1v40a1,1,0,0,0,1,1h149.42a1,1,0,0,0,1-1v-40a1,1,0,0,0-1-1" transform="translate(15 26.54)"/><rect class="cls-18" x="1292.13" y="368.99" width="151.42" height="42" rx="1"/></g><text class="cls-19" transform="translate(1314.48 397.01)"><tspan class="cls-45">E</tspan><tspan x="10.53" y="0">A </tspan><tspan class="cls-46" x="29.46" y="0">P</tspan><tspan x="40.49" y="0">on</tspan><tspan class="cls-32" x="64.1" y="0">t</tspan><tspan x="71.23" y="0">oon</tspan></text><g class="cls-21"><path class="cls-17" d="M1421.85,413.22H1278.13a1,1,0,0,0-1,1v40a1,1,0,0,0,1,1h143.72a1,1,0,0,0,1-1v-40a1,1,0,0,0-1-1" transform="translate(15 26.54)"/><rect class="cls-18" x="1292.13" y="439.76" width="145.72" height="42" rx="1"/></g><text class="cls-19" transform="translate(1314.48 468.03)">Fer<tspan class="cls-31" x="28.08" y="0">r</tspan><tspan x="36.28" y="0">y </tspan><tspan class="cls-35" x="51.94" y="0">S</tspan><tspan class="cls-36" x="62.27" y="0">t</tspan><tspan x="69.4" y="0">eps</tspan></text><g class="cls-21"><line class="cls-18" x1="521.02" y1="112.8" x2="731.24" y2="352.82"/><line class="cls-18" x1="282.79" y1="177.69" x2="731.54" y2="405.97"/><line class="cls-18" x1="266.7" y1="240.09" x2="743.23" y2="450.63"/><line class="cls-18" x1="1025.95" y1="94.41" x2="839.41" y2="282.39"/><path class="cls-47" d="M819.5,260.12a6.5,6.5,0,1,1,9.17.63,6.5,6.5,0,0,1-9.17-.63" transform="translate(15 26.54)"/><path class="cls-48" d="M853,1051.45c-.63-2-.69-3.43,2-4.18,7.8-2.15,15.53-4.56,23.24-7,3.07-1,3.48,1.07,4.11,3.09q5.77,18.76,11.57,37.53,11,35.55,21.89,71.11c1.36,4.41,1.38,4.42-2.91,5.67-7.11,2.08-14.2,4.19-21.33,6.19-3.42,1-3.57.89-4.64-2.52-3.88-12.32-7.66-24.68-11.5-37-3.12-10-19.47-63.34-22.45-72.87" transform="translate(15 26.54)"/><g class="cls-49"><g class="cls-50"><path class="cls-51" d="M552.41,621h2.09c-.7.87-1.4,1.61-2.09,0" transform="translate(15 26.54)"/></g></g><g class="cls-52"><g class="cls-53"><path class="cls-54" d="M739.11,759.72c36.43-10.06,75.54-10,75.54-10l72.28,272.15c-16.3,12.41-36.25,17.45-57.23,21.19-.11-35.52-20.13-163.44-90.59-283.39" transform="translate(15 26.54)"/></g></g><polygon class="cls-48" points="774.57 711.53 803.42 704.56 813.38 746.37 784.83 753.39 774.57 711.53"/><polygon class="cls-48" points="723.77 759.44 735.86 752.38 746.03 769.92 734.08 776.96 723.77 759.44"/><g class="cls-55"><g class="cls-56"><polygon class="cls-54" points="864.66 1081.95 899.45 1193.56 854.47 1168.93 852.43 1092.36 864.66 1081.95"/></g></g><rect class="cls-48" x="732.4" y="376.23" width="29.94" height="29.94" transform="translate(-67.16 264.54) rotate(-17.17)"/><g class="cls-57"><g class="cls-58"><path class="cls-59" d="M891.12,269.78c3.78,25.42,15.32,44.76,25.76,43.2s15.84-23.42,12-48.83S913.61,219.4,903.17,221s-15.84,23.41-12,48.82" transform="translate(15 26.54)"/></g></g><g class="cls-57"><g class="cls-60"><path class="cls-59" d="M540.23,674.88c-11.78-10.24-25.51-13.74-30.65-7.81s.24,19,12,29.26,25.52,13.74,30.66,7.82-.24-19-12-29.27" transform="translate(15 26.54)"/></g></g><g class="cls-52"><g class="cls-61"><polygon class="cls-54" points="758.74 641.15 785.14 651.15 741.74 742.39 715.92 729.96 758.74 641.15"/></g></g><line class="cls-18" x1="1292.13" y1="248.46" x2="790.46" y2="419.65"/><path class="cls-47" d="M769,394.08a6.5,6.5,0,1,1,7.39,5.47,6.5,6.5,0,0,1-7.39-5.47" transform="translate(15 26.54)"/><path class="cls-47" d="M710.34,327.49a6.5,6.5,0,1,1,7.39,5.47,6.51,6.51,0,0,1-7.39-5.47" transform="translate(15 26.54)"/><path class="cls-47" d="M708.07,380.09a6.5,6.5,0,1,1,7.39,5.47,6.5,6.5,0,0,1-7.39-5.47" transform="translate(15 26.54)"/><path class="cls-47" d="M722.6,425.05a6.5,6.5,0,1,1,7.39,5.47,6.5,6.5,0,0,1-7.39-5.47" transform="translate(15 26.54)"/><line class="cls-18" x1="302.45" y1="302.5" x2="754.62" y2="486.87"/><path class="cls-47" d="M729.1,460.7a6.5,6.5,0,1,1,7.39,5.47,6.5,6.5,0,0,1-7.39-5.47" transform="translate(15 26.54)"/><line class="cls-18" x1="260.32" y1="364.58" x2="613.92" y2="480.66"/><path class="cls-47" d="M588.4,454.49a6.5,6.5,0,1,1,7.38,5.47,6.5,6.5,0,0,1-7.38-5.47" transform="translate(15 26.54)"/><line class="cls-18" x1="228.66" y1="426.66" x2="575.97" y2="507.57"/><path class="cls-47" d="M550.45,481.4a6.5,6.5,0,1,1,7.39,5.47,6.5,6.5,0,0,1-7.39-5.47" transform="translate(15 26.54)"/><line class="cls-18" x1="241.17" y1="533.78" x2="517.91" y2="593.76"/><path class="cls-47" d="M492.39,567.59a6.5,6.5,0,1,1,7.39,5.47,6.49,6.49,0,0,1-7.39-5.47" transform="translate(15 26.54)"/><line class="cls-18" x1="1292.13" y1="391.75" x2="813.03" y2="486.84"/><path class="cls-47" d="M791.82,462.22a6.5,6.5,0,1,1,8.13,4.29,6.5,6.5,0,0,1-8.13-4.29" transform="translate(15 26.54)"/><line class="cls-18" x1="1292.13" y1="459.07" x2="937.58" y2="483.59"/><path class="cls-47" d="M916.36,459a6.5,6.5,0,1,1,8.13,4.29,6.51,6.51,0,0,1-8.13-4.29" transform="translate(15 26.54)"/><line class="cls-18" x1="1292.13" y1="531.2" x2="763.38" y2="581.33"/><path class="cls-47" d="M742.17,556.71a6.5,6.5,0,1,1,8.13,4.3,6.5,6.5,0,0,1-8.13-4.3" transform="translate(15 26.54)"/><line class="cls-18" x1="1292.13" y1="602.38" x2="803.47" y2="611.62"/><path class="cls-47" d="M782.26,587a6.5,6.5,0,1,1,8.13,4.29,6.5,6.5,0,0,1-8.13-4.29" transform="translate(15 26.54)"/><line class="cls-18" x1="1292.13" y1="671.86" x2="811.34" y2="653.48"/><path class="cls-47" d="M790.12,628.86a6.5,6.5,0,1,1,8.13,4.29,6.5,6.5,0,0,1-8.13-4.29" transform="translate(15 26.54)"/><line class="cls-18" x1="1292.13" y1="743.83" x2="966.96" y2="765.12"/><path class="cls-47" d="M945.75,740.51a6.5,6.5,0,1,1,8.13,4.29,6.5,6.5,0,0,1-8.13-4.29" transform="translate(15 26.54)"/><line class="cls-18" x1="1292.13" y1="814.6" x2="955.52" y2="822.41"/><path class="cls-47" d="M934.31,797.79a6.5,6.5,0,1,1,8.13,4.29,6.5,6.5,0,0,1-8.13-4.29" transform="translate(15 26.54)"/><line class="cls-18" x1="1292.13" y1="885.63" x2="1010.96" y2="846.59"/><path class="cls-47" d="M989.74,822a6.5,6.5,0,1,1,8.13,4.29,6.51,6.51,0,0,1-8.13-4.29" transform="translate(15 26.54)"/><line class="cls-18" x1="1276.52" y1="1294.32" x2="1047.97" y2="1298.2"/><path class="cls-47" d="M1026.76,1273.58a6.5,6.5,0,1,1,8.13,4.29,6.5,6.5,0,0,1-8.13-4.29" transform="translate(15 26.54)"/><line class="cls-18" x1="1292.13" y1="958.07" x2="1017.46" y2="1024.31"/><path class="cls-47" d="M996.25,999.69a6.5,6.5,0,1,1,8.12,4.29,6.5,6.5,0,0,1-8.12-4.29" transform="translate(15 26.54)"/><line class="cls-18" x1="1292.13" y1="320.72" x2="928.53" y2="398.25"/><path class="cls-47" d="M907.17,373.07a6.5,6.5,0,1,1,7.71,5,6.5,6.5,0,0,1-7.71-5" transform="translate(15 26.54)"/><path class="cls-47" d="M926.57,256.59a6.5,6.5,0,1,1,8.52,3.45,6.5,6.5,0,0,1-8.52-3.45" transform="translate(15 26.54)"/><line class="cls-18" x1="1292.13" y1="177.69" x2="947.56" y2="280.59"/><line class="cls-62" x1="804.83" y1="476.12" x2="789.1" y2="515.87"/><rect class="cls-6" x="749.96" y="417.05" width="58.01" height="8.1" transform="translate(-84.72 337.99) rotate(-21.28)"/><rect class="cls-6" x="749.96" y="636.2" width="58.01" height="8.1" transform="translate(-105.67 1122.16) rotate(-66.27)"/><rect class="cls-6" x="716.1" y="330.11" width="58.01" height="8.1" transform="translate(-3.05 651.28) rotate(-45)"/><g class="cls-57"><g class="cls-63"><path class="cls-59" d="M727.75,328.79c-13.56,13.56-19.46,29.63-13.18,35.91s22.35.37,35.91-13.18,19.45-29.63,13.18-35.91-22.36-.37-35.91,13.18" transform="translate(15 26.54)"/></g></g><g class="cls-57"><g class="cls-64"><path class="cls-59" d="M762.09,411.24c-15.27,3.26-26.32,12.12-24.69,19.79s15.34,11.25,30.61,8,26.33-12.12,24.69-19.79-15.34-11.26-30.61-8" transform="translate(15 26.54)"/></g></g><path class="cls-59" d="M532.51,568.46a11.65,11.65,0,1,0-11.65,11.64,11.65,11.65,0,0,0,11.65-11.64" transform="translate(15 26.54)"/><polygon class="cls-5" points="535.87 588.11 538.11 592.64 543.11 593.37 539.49 596.9 540.35 601.89 535.87 599.53 531.39 601.89 532.24 596.9 528.62 593.37 533.63 592.64 535.87 588.11"/><path class="cls-59" d="M629.35,463.55a11.65,11.65,0,1,0-11.64,11.65,11.64,11.64,0,0,0,11.64-11.65" transform="translate(15 26.54)"/><polygon class="cls-6" points="632.71 483.2 634.95 487.73 639.96 488.46 636.33 491.99 637.19 496.98 632.71 494.63 628.23 496.98 629.09 491.99 625.46 488.46 630.47 487.73 632.71 483.2"/><path class="cls-59" d="M921.73,264a11.64,11.64,0,1,0-11.64,11.64A11.64,11.64,0,0,0,921.73,264" transform="translate(15 26.54)"/><polygon class="cls-6" points="925.09 283.64 927.33 288.18 932.34 288.91 928.72 292.44 929.57 297.43 925.09 295.07 920.61 297.43 921.47 292.44 917.85 288.91 922.85 288.18 925.09 283.64"/><path class="cls-59" d="M909.13,460.3a11.65,11.65,0,1,0-11.65,11.64,11.65,11.65,0,0,0,11.65-11.64" transform="translate(15 26.54)"/><polygon class="cls-6" points="912.49 479.94 914.73 484.48 919.73 485.21 916.11 488.74 916.97 493.73 912.49 491.37 908.01 493.73 908.86 488.74 905.24 485.21 910.25 484.48 912.49 479.94"/><path class="cls-59" d="M732.64,560.13A11.64,11.64,0,1,0,721,571.78a11.64,11.64,0,0,0,11.64-11.65" transform="translate(15 26.54)"/><polygon class="cls-6" points="736 579.78 738.24 584.31 743.25 585.04 739.63 588.57 740.48 593.56 736 591.21 731.52 593.56 732.38 588.57 728.76 585.04 733.76 584.31 736 579.78"/><path class="cls-59" d="M776,585.46a11.65,11.65,0,1,0-11.65,11.65A11.65,11.65,0,0,0,776,585.46" transform="translate(15 26.54)"/><polygon class="cls-6" points="779.37 605.11 781.61 609.64 786.61 610.37 782.99 613.9 783.85 618.89 779.37 616.54 774.89 618.89 775.74 613.9 772.12 610.37 777.13 609.64 779.37 605.11"/><rect class="cls-48" x="71.01" y="1268.85" width="421.24" height="90.56"/></g><text class="cls-65" transform="translate(150.92 1320.87)"><tspan class="cls-66">T</tspan><tspan x="13.09" y="0">rip B</tspan><tspan class="cls-67" x="71.84" y="0">o</tspan><tspan class="cls-68" x="88.14" y="0">at De</tspan><tspan class="cls-69" x="155.07" y="0">p</tspan><tspan x="171.52" y="0">a</tspan><tspan class="cls-70" x="186.04" y="0">r</tspan><tspan x="197.11" y="0">tu</tspan><tspan class="cls-71" x="223.38" y="0">r</tspan><tspan x="233.45" y="0">e </tspan><tspan class="cls-72" x="255.87" y="0">P</tspan><tspan x="271.2" y="0">oint</tspan></text><g class="cls-21"><path class="cls-59" d="M123.69,1287.59a23.83,23.83,0,1,0-23.83,23.83,23.82,23.82,0,0,0,23.83-23.83" transform="translate(15 26.54)"/><polygon class="cls-6" points="114.87 1300.02 119.45 1309.31 129.7 1310.8 122.28 1318.03 124.03 1328.23 114.87 1323.41 105.7 1328.23 107.45 1318.03 100.03 1310.8 110.28 1309.31 114.87 1300.02"/><g class="cls-57"><g class="cls-73"><path class="cls-74" d="M760.23,638.7c-8.6,17.56-8.42,35.3.41,39.62s22.94-6.41,31.54-24,8.42-35.3-.4-39.62-22.95,6.41-31.55,24" transform="translate(15 26.54)"/></g></g><polyline class="cls-62" points="576.61 611.99 593.7 610.79 597.3 662.14 549.81 665.48 546.13 613.16"/><line class="cls-18" x1="303.47" y1="594.87" x2="577.73" y2="638.89"/><path class="cls-47" d="M552.21,612.72a6.5,6.5,0,1,1,7.39,5.47,6.5,6.5,0,0,1-7.39-5.47" transform="translate(15 26.54)"/><line class="cls-18" x1="260.32" y1="657.22" x2="527.88" y2="652.37"/><path class="cls-47" d="M508.11,629.89a6.5,6.5,0,1,1,9.14,1,6.5,6.5,0,0,1-9.14-1" transform="translate(15 26.54)"/><line class="cls-18" x1="298.98" y1="760.61" x2="510.32" y2="717.29"/><path class="cls-47" d="M490.55,694.81a6.5,6.5,0,1,1,9.14,1,6.5,6.5,0,0,1-9.14-1" transform="translate(15 26.54)"/><line class="cls-18" x1="235.04" y1="927.61" x2="720.13" y2="775.95"/><path class="cls-47" d="M700.36,753.46a6.5,6.5,0,1,1,9.14,1,6.49,6.49,0,0,1-9.14-1" transform="translate(15 26.54)"/><line class="cls-18" x1="254.19" y1="990.83" x2="782.22" y2="764.26"/><path class="cls-47" d="M762.45,741.78a6.5,6.5,0,1,1,9.14,1,6.49,6.49,0,0,1-9.14-1" transform="translate(15 26.54)"/><line class="cls-18" x1="222.53" y1="865.93" x2="644.39" y2="744.95"/><path class="cls-47" d="M624.62,722.47a6.5,6.5,0,1,1,9.13,1,6.49,6.49,0,0,1-9.13-1" transform="translate(15 26.54)"/><path class="cls-47" d="M818,888.61a6.5,6.5,0,1,1,9.13,1,6.51,6.51,0,0,1-9.13-1" transform="translate(15 26.54)"/><line class="cls-18" x1="282.02" y1="1116.72" x2="858.93" y2="1076.15"/><path class="cls-47" d="M838.84,1053.67a6.5,6.5,0,1,1,9.14,1,6.51,6.51,0,0,1-9.14-1" transform="translate(15 26.54)"/><line class="cls-18" x1="301.17" y1="1179.42" x2="870.84" y2="1157.44"/><path class="cls-47" d="M851.07,1135a6.5,6.5,0,1,1,9.14,1,6.5,6.5,0,0,1-9.14-1" transform="translate(15 26.54)"/><path class="cls-4" d="M598.93,1373.92c41.49-45.61-39.57-34.47-39.57-34.47" transform="translate(15 26.54)"/><path class="cls-4" d="M598.93,1373.92c25-28.72,8.68-72.48,8.68-72.48" transform="translate(15 26.54)"/><path class="cls-75" d="M725.77,779.25l-7.69-11.61c5.56,1.26,10-1.79,14.33-4.26,5.89-3.36,11.87-4.76,18.26-2.39,2.22.82,3.55-.17,5.35-.66,8.24-2.25,16.41-4.38,25.17-4.48,5.59-.06,11.19-1.83,17-1.7,10.78.26,15.62,3.09,18,13.4,4.6,20.29,10.65,40.18,15.81,60.31,4.85,18.91,10.66,37.58,15.27,56.55,4.9,20.2,11.24,40,15.86,60.3,3.84,16.87,9.29,33.38,14,50.06,1.11,4,2,8,3.21,11.87,5.31,17-5.24,27.15-19.14,26.85-6.64-.14-13.43,1.23-20.16-1.69-4.72,3.29-8.07,9.09-14.76,9.63,0-3.44-.16-6.85-2-9.94,9.81-1.42,14.8-9,12.37-19.19-2.49-10.41-5.19-20.77-7.85-31.14-6.73-26.26-13.41-52.52-20.29-78.74-2.8-10.65-5-21.63-9.32-31.69-9.26-21.6-19.71-42.7-29.66-64-1.21-2.58-2.25-5.28-3.45-7.81-5.4-11.34-9.06-24-20.72-31-7.56,2.44-14.75,4.85-19.56,11.33m36.39-10.59c11.52,25.16,22.18,49.61,33.85,73.57,8.22,16.89,15.21,34,19.53,52.37,5.84,24.83,13.49,49.25,19.33,74.08,4,17.14,12,33.5,10.63,51.82-.31,4,2.76,6.37,6.23,4.87,4.13-1.78,8.18-1.07,12.27-1.44,5.44-.5,8.12-3.1,8.35-8.4a17,17,0,0,0-.68-6.61c-5-14-7.89-28.51-11.81-42.77-4.59-16.7-9-33.43-13.55-50.15s-9.1-33.46-13.56-50.21c-6.81-25.59-14-51.08-20.59-76.73-2.15-8.37-3.93-17.2-8.35-25-14.11-.92-27.61,0-41.65,4.59" transform="translate(15 26.54)"/><path class="cls-7" d="M750.35,612.87l0,.09a11.28,11.28,0,0,1-.55,8.41c-2.61,5.44-4.72,11.11-7.36,16.54Q722,680,701.2,722.07c-1.23,2.47-1.71,5.41-3,7.93,2,1.2,4,2.5,6,3.67,3.16-5.79,5.37-12.07,8.21-18,12.35-25.88,25.05-51.59,37.63-77.37,1.82-3.73,3.78-7.39,5.48-11.17,1.85-4.1,3.33-8.22,2.9-12.41-2.67-.74-5.43-1.31-8.06-1.83" transform="translate(15 26.54)"/><path class="cls-4" d="M235.94,1373.78c2.06-2.41,11.06-11.35,12.33-15.56,2.56.44,8.57,4.38,8.06,15.7Z" transform="translate(15 26.54)"/><line class="cls-18" x1="271.17" y1="1056.24" x2="837.78" y2="911.09"/></g></g></g></g></svg>