<svg xmlns="http://www.w3.org/2000/svg" viewBox="0 0 422.55 68.68"><defs><style>.cls-1{font-size:34.19px;letter-spacing:0.14em;}.cls-1,.cls-6{fill:#cb61a0;}.cls-1,.cls-8{font-family:FuturaPT-Bold, Futura PT;font-weight:700;}.cls-2{letter-spacing:0.17em;}.cls-3{letter-spacing:0.16em;}.cls-4{opacity:0.67;}.cls-5,.cls-8{fill:#60bfc3;}.cls-7{stroke:#000;stroke-miterlimit:10;}.cls-8{font-size:41.38px;letter-spacing:0.18em;}.cls-9{letter-spacing:0.18em;}.cls-10{letter-spacing:0.17em;}.cls-11{letter-spacing:0.17em;}.cls-12{letter-spacing:0.19em;}.cls-13{letter-spacing:0.17em;}.cls-14{letter-spacing:0.18em;}</style></defs><g id="Layer_2" data-name="Layer 2"><g id="Layer_1-2" data-name="Layer 1"><text class="cls-1" transform="translate(72.74 34.24)">S<tspan class="cls-2" x="24.34" y="0">A</tspan><tspan class="cls-3" x="54.42" y="0">M</tspan></text><g class="cls-4"><path class="cls-5" d="M44.27,64.93a22,22,0,0,1-4.49,2.41,14.29,14.29,0,0,1-6.78.75,23,23,0,0,1-4.5-.87,15.62,15.62,0,0,1-4.84-2.29h5a15.57,15.57,0,0,0,2.66.73,16,16,0,0,0,5.34,0,12.72,12.72,0,0,0,2.73-.77Z"/><path class="cls-5" d="M21.09,27.22H19.22c0-.3.06-.6.1-.91s0-.81.51-.9.89,1,.94,1.08S21,27,21.09,27.22ZM60.37,23.7H57.85c.26.91.53,1.82.82,2.73.08.26.17.53.26.79h2.53C61.11,26.05,60.74,24.87,60.37,23.7Zm-53.21,0c-.4,1.18-.79,2.35-1.18,3.52H8.55c.39-1.18.83-2.35,1.27-3.52Z"/><path class="cls-5" d="M57.08,21.57H54.64c-.5-1.65-1.12-3.26-1.78-4.85h2.5C56,18.33,56.53,20,57.08,21.57ZM7.27,16.72c-.72,1.59-1.35,3.21-1.94,4.85H8.07l.54-1.39c.45-1.16.9-2.32,1.39-3.46Z"/><path class="cls-5" d="M18.9,59.84a2.48,2.48,0,0,0,.39,0,13.62,13.62,0,0,1-1.95-3.69H19.9c.23.52.49,1,.75,1.57a19,19,0,0,0,1.29,2.14Zm39.92-3.71a26.94,26.94,0,0,1-8.13,3.36,12.07,12.07,0,0,1-1.74.25c.18-.4.34-.92.42-1.11.35-.83.72-1.67,1.07-2.5H48a24.26,24.26,0,0,1-1.94,3.71H57c.29-.14.58-.29.86-.45C59,58.79,60,58.13,61,57.47a12.86,12.86,0,0,0,1.77-1.34ZM16,59.32a18.62,18.62,0,0,1-6.54-3.19H5.08c1.14.91,2.32,1.8,3.53,2.62.57.39,1.15.75,1.75,1.09H18.9A11.49,11.49,0,0,1,16,59.32Zm24.34-2.53c-.23.24-.3.57-.61.89a17.51,17.51,0,0,0-4.59-1,19.85,19.85,0,0,0-6.44,1,5.86,5.86,0,0,0-.72-.84.89.89,0,0,0-1.48.67A2.14,2.14,0,0,0,29,59.6c.61-.18,1.23-.34,1.84-.51a11.78,11.78,0,0,1,8,.46A2.35,2.35,0,0,0,42,57.29.94.94,0,0,0,40.36,56.79Z"/><path class="cls-5" d="M17.92,54H15.16a4,4,0,0,0-1.29-.92,6.85,6.85,0,0,1-3.67-3.92h2.58l.18.35a3.32,3.32,0,0,0,2.92,2,1.46,1.46,0,0,1,1.63,1.25C17.64,53.16,17.77,53.58,17.92,54Zm35.36-4.84a3.24,3.24,0,0,1-.21.48c-1,1.77-1.79,1.9-3.7,2.13a1.41,1.41,0,0,0-1.17,1c-.14.43-.29.86-.44,1.28h2.51a1.36,1.36,0,0,1,1-.67c3-.42,3.65-2.1,4.25-4.17Zm12.64.17,0-.17H63.6A3.84,3.84,0,0,1,63,51.07,12.06,12.06,0,0,1,60.66,54h3a24.65,24.65,0,0,0,1.72-2.48A3.34,3.34,0,0,0,65.92,49.32ZM4.13,52.71a5,5,0,0,1-1.54-3.56H0c0,.25,0,.51.05.77a9.14,9.14,0,0,0,.41,1.85A6.94,6.94,0,0,0,1.68,54H5.51A11.89,11.89,0,0,1,4.13,52.71Zm30.93-2.48a3.1,3.1,0,0,0-1,.7c-.15.14-.4.26-.33.49a.92.92,0,0,0,.6.6A2.23,2.23,0,0,0,36,50.85.69.69,0,0,0,35.06,50.23Zm-3.17.7a4.57,4.57,0,0,0-.56-.82.62.62,0,0,0-.9,0,.47.47,0,0,0-.09.67c.19.32.39.64.6.95a.52.52,0,0,0,.43.21A.62.62,0,0,0,31.89,50.93Z"/><path class="cls-5" d="M52.77,41.3H50.23l-1.42-1.59h2.76ZM15.5,39.71,13.7,41.3h3.78l.94-.75a5.76,5.76,0,0,0,.87-.84Zm-13.95,0c-.12.53-.23,1.06-.34,1.59H4c.12-.53.26-1.06.39-1.59Zm62.68,0H61.89c.13.53.26,1.06.38,1.59h2.35Z"/><path class="cls-5" d="M9.78,27.22c0,.17-.11.33-.16.5-.88,2.75-1.57,5.56-2.31,8.36l-.93,3.63H3.59A111,111,0,0,1,6.76,28.54l.45-1.32ZM51.39,37c-.11-.13-.25-.23-.35-.37a6.73,6.73,0,0,0-4.89-2.45,39,39,0,0,0-7.79-.3c-2,.17-3.88.48-5.83.65s-3.91.27-5.86.4a1.31,1.31,0,0,1-1.19-.63,5.46,5.46,0,0,1-.58-1c-.89-2-1.71-4-2.58-6H20.45a76.21,76.21,0,0,0-.17,8.68A2.77,2.77,0,0,1,19,38.48a4.74,4.74,0,0,0-.49.4l-.94.83h3.78a6.1,6.1,0,0,0,1.43-4.61l-.09-.9c.05-.73,1,1.4,1.16,1.75.67,1.8,2.11,1.89,3.67,1.65,2.74-.42,5.45-1,8.19-1.31a37.13,37.13,0,0,1,8.56,0c.89.09,1.77.23,2.66.33a3.61,3.61,0,0,1,2.33,1.24c.53.61,1.08,1.22,1.62,1.83h2.76C52.92,38.8,52.2,37.88,51.39,37Zm14-.37c-.89-3.13-1.78-6.25-2.73-9.36H60.16c.55,1.64,1.14,3.25,1.63,4.9.75,2.52,1.5,5,2.14,7.59h2.33C66,38.66,65.71,37.62,65.42,36.58Z"/><path class="cls-5" d="M9.84,21.57C9.57,22.28,9.29,23,9,23.7H6.35l.75-2.13Zm49.61,1.79c-.19-.6-.39-1.2-.6-1.79H56.41c0,.07.05.14.07.21.19.64.37,1.28.56,1.92h2.52C59.52,23.59,59.49,23.47,59.45,23.36Z"/><path class="cls-5" d="M35.49,4.43h-5c.64,0,1.29,0,1.94-.08C33.48,4.36,34.49,4.38,35.49,4.43ZM52.06,8.15c-.77-.42-.8-.62-.47-1.46l.9-2.26H49.76c-.29.48-.59,1-.89,1.43a1.12,1.12,0,0,1-1.27.58A6.09,6.09,0,0,1,47,6.27a47.91,47.91,0,0,0-11.5-1.84h-5c-.55,0-1.09.06-1.63.13-1.9.23-3.81.47-5.68.86A55.81,55.81,0,0,0,17.05,7a11,11,0,0,0-3.51,1.86h5c.49-.16,1-.28,1.49-.39,2.16-.47,4.33-.93,6.52-1.24a41.51,41.51,0,0,1,11.19-.36,97.12,97.12,0,0,1,10.14,2h5.29A6.43,6.43,0,0,0,52.06,8.15Z"/><path class="cls-5" d="M18.52,8.87a8.17,8.17,0,0,0-3,1.67,13.45,13.45,0,0,0-2.88,4.33c-.3.61-.58,1.23-.84,1.85H9.08l.57-1.21c.61-1.26,1.15-2.56,1.73-3.84a7.71,7.71,0,0,1,2.16-2.8Zm37.13,3.79a8.81,8.81,0,0,0-2.5-3.79H47.89a7.52,7.52,0,0,1,5.45,4.69c.44,1.06.9,2.11,1.33,3.16h2.5C56.67,15.37,56.16,14,55.65,12.66Z"/><path class="cls-5" d="M28.78,64.93h-5a12.83,12.83,0,0,1-1.73-1.5,3.54,3.54,0,0,0-2.07-.9c-1.88-.35-3.79-.59-5.63-1.08a16.4,16.4,0,0,1-3.87-1.61H22.11a13.06,13.06,0,0,0,3.26,3.29A15.69,15.69,0,0,0,28.78,64.93Zm17.46-5.09c-.19.31-.4.61-.61.91a9.69,9.69,0,0,1-3.18,2.73,23.58,23.58,0,0,1-2.94,1.45h4.92A14.91,14.91,0,0,0,46.64,63a2.5,2.5,0,0,1,1.66-.82,25.49,25.49,0,0,0,3.89-.66,25.14,25.14,0,0,0,5-1.68Z"/><path class="cls-5" d="M11.48,56.13H7.07l-.34-.28A12.68,12.68,0,0,1,4.79,54H8.62c.87.71,1.8,1.33,2.69,2ZM21,54H18.27a4,4,0,0,1,.88,1.57c.06.19.12.38.19.57h2.55C21.58,55.42,21.29,54.71,21,54Zm29.83,0c-.26.72-.53,1.43-.84,2.14h2.42l.68-1.61a2.9,2.9,0,0,1,.26-.53Zm12.91,0a14.1,14.1,0,0,1-2.64,1.95l-.31.19h4a17.32,17.32,0,0,0,2-2.14Z"/><path class="cls-5" d="M4,41.3c-.29,1.15-.56,2.3-.82,3.45a36.14,36.14,0,0,0-.51,4c0,.11,0,.23,0,.35H0a29.86,29.86,0,0,1,.92-6.44c.09-.47.19-.94.29-1.41Zm9.25,3.39,4.28-3.39H13.7l-3.4,3a1.94,1.94,0,0,0-.78,1.78,12.12,12.12,0,0,0,.68,3.09h2.58a13.1,13.1,0,0,1-.61-1.93A2.29,2.29,0,0,1,13.2,44.69Zm11.75-3a1.78,1.78,0,0,0-1.86,2,1.92,1.92,0,0,0,1.88,2,2.08,2.08,0,0,0,1.93-2A2,2,0,0,0,25,41.67Zm16.23.43a1.71,1.71,0,0,0-1.65,2,1.8,1.8,0,0,0,1.86,1.8,1.9,1.9,0,1,0-.21-3.79Zm14.07,2.28c-.91-1-1.71-2.06-2.48-3.08H50.23l.59.67a30.56,30.56,0,0,1,2.85,3.71,1.5,1.5,0,0,1,.19,1,12.27,12.27,0,0,1-.58,2.52h2.2c.16-.56.32-1.15.5-1.76A2.82,2.82,0,0,0,55.25,44.38Zm10-.25c-.19-1-.4-1.89-.63-2.83H62.27c.36,1.55.66,3.12.87,4.71.13,1,.34,1.92.45,2.89a2,2,0,0,1,0,.25h2.3C65.7,47.47,65.6,45.78,65.25,44.13Z"/><path class="cls-5" d="M55.27,1.72c-.35.91-.71,1.81-1.07,2.71H51.07a25.55,25.55,0,0,1,2.19-3.2C53.92.48,54.57-.18,55.08,0S55.66.71,55.27,1.72Z"/></g><g class="cls-4"><path class="cls-6" d="M48,65.08a22.15,22.15,0,0,1-4.48,2.41,14.22,14.22,0,0,1-6.79.75,22.85,22.85,0,0,1-4.49-.87,15.78,15.78,0,0,1-4.85-2.29h5a15.68,15.68,0,0,0,2.67.73,15.9,15.9,0,0,0,5.33,0,12.56,12.56,0,0,0,2.73-.77Z"/><path class="cls-6" d="M24.85,27.37H23c0-.3.06-.6.1-.91s0-.81.51-.9.9,1,.95,1.08Zm39.28-3.52H61.61c.26.91.53,1.82.82,2.73.09.26.18.53.26.79h2.54C64.87,26.2,64.5,25,64.13,23.85Zm-53.2,0c-.41,1.18-.79,2.35-1.19,3.52h2.57c.4-1.18.83-2.35,1.27-3.52Z"/><path class="cls-6" d="M60.84,21.72H58.4c-.5-1.65-1.12-3.26-1.78-4.85h2.5C59.71,18.48,60.29,20.1,60.84,21.72ZM11,16.87c-.72,1.59-1.35,3.21-1.94,4.85h2.74c.18-.47.37-.93.55-1.39.45-1.16.9-2.32,1.38-3.46Z"/><path class="cls-6" d="M22.67,60a2.55,2.55,0,0,0,.39,0,13.93,13.93,0,0,1-2-3.69h2.56c.23.53.49,1,.76,1.57A16.42,16.42,0,0,0,25.71,60Zm39.91-3.71a26.94,26.94,0,0,1-8.13,3.36,11.87,11.87,0,0,1-1.74.25c.18-.4.34-.92.42-1.11.35-.83.72-1.67,1.08-2.5H51.79A25.18,25.18,0,0,1,49.85,60H60.79c.29-.14.58-.29.86-.45,1.08-.6,2.11-1.26,3.16-1.92a12.86,12.86,0,0,0,1.77-1.34ZM19.79,59.47a18.58,18.58,0,0,1-6.55-3.19H8.84c1.15.91,2.32,1.8,3.53,2.62.57.39,1.15.75,1.75,1.09h8.55A11.32,11.32,0,0,1,19.79,59.47Zm24.33-2.53c-.23.24-.3.57-.61.89a17.52,17.52,0,0,0-4.58-1,19.87,19.87,0,0,0-6.45,1,5.86,5.86,0,0,0-.72-.84.89.89,0,0,0-1.48.67,2.15,2.15,0,0,0,2.49,2.12c.61-.18,1.23-.34,1.85-.51a11.76,11.76,0,0,1,8,.46,2.34,2.34,0,0,0,3.12-2.26A.94.94,0,0,0,44.12,56.94Z"/><path class="cls-6" d="M21.68,54.14H18.93a4.17,4.17,0,0,0-1.3-.92A6.85,6.85,0,0,1,14,49.3h2.58a3.9,3.9,0,0,0,.19.35,3.31,3.31,0,0,0,2.92,2,1.45,1.45,0,0,1,1.62,1.25C21.4,53.31,21.54,53.73,21.68,54.14ZM57.05,49.3a3.24,3.24,0,0,1-.21.48c-1,1.77-1.8,1.9-3.71,2.13a1.42,1.42,0,0,0-1.17,1c-.14.43-.29.86-.44,1.28H54a1.38,1.38,0,0,1,1-.67c3-.42,3.65-2.1,4.25-4.17Zm12.64.17,0-.17H67.36a3.74,3.74,0,0,1-.63,1.92,12,12,0,0,1-2.3,2.92h3a24.65,24.65,0,0,0,1.72-2.48A3.4,3.4,0,0,0,69.69,49.47ZM7.9,52.86A4.94,4.94,0,0,1,6.36,49.3H3.77c0,.25,0,.51,0,.77a9.14,9.14,0,0,0,.41,1.85,6.78,6.78,0,0,0,1.23,2.22H9.27A11.8,11.8,0,0,1,7.9,52.86Zm30.93-2.48a3.14,3.14,0,0,0-1,.7c-.15.14-.4.26-.32.49a.9.9,0,0,0,.6.6c.39.11,1.59-.75,1.63-1.17A.68.68,0,0,0,38.83,50.38Zm-3.18.7a4.57,4.57,0,0,0-.56-.82.62.62,0,0,0-.9,0,.48.48,0,0,0-.09.67c.19.32.4.64.6,1a.52.52,0,0,0,.43.21A.61.61,0,0,0,35.65,51.08Z"/><path class="cls-6" d="M56.53,41.45H54l-1.41-1.59h2.75C55.74,40.39,56.13,40.92,56.53,41.45ZM19.26,39.86l-1.8,1.59h3.78l.94-.75a5.76,5.76,0,0,0,.87-.84Zm-13.94,0c-.12.53-.24,1.06-.35,1.59H7.71l.39-1.59Zm62.67,0H65.66c.13.53.25,1.06.37,1.59h2.35C68.26,40.92,68.12,40.39,68,39.86Z"/><path class="cls-6" d="M13.55,27.37l-.17.5c-.88,2.75-1.57,5.56-2.3,8.36-.32,1.21-.63,2.42-.94,3.63H7.36a106,106,0,0,1,3.17-11.17L11,27.37Zm41.6,9.73c-.11-.13-.25-.23-.35-.37a6.73,6.73,0,0,0-4.89-2.45A38.19,38.19,0,0,0,42.13,34c-2,.16-3.89.47-5.84.64s-3.91.27-5.86.4a1.31,1.31,0,0,1-1.19-.63,6.11,6.11,0,0,1-.58-1c-.89-2-1.71-4-2.58-6H24.21a76.2,76.2,0,0,0-.16,8.68,2.81,2.81,0,0,1-1.31,2.58,4.87,4.87,0,0,0-.5.4l-.94.83h3.79a6.18,6.18,0,0,0,1.43-4.61l-.1-.9c.06-.73,1,1.4,1.16,1.75.68,1.8,2.12,1.89,3.68,1.65,2.73-.42,5.45-1,8.19-1.31a37,37,0,0,1,8.55,0c.89.09,1.78.23,2.66.33A3.61,3.61,0,0,1,53,38l1.62,1.83h2.76C56.68,39,56,38,55.15,37.1Zm14-.37Q67.86,32,66.46,27.37H63.92c.55,1.64,1.15,3.25,1.63,4.9.75,2.52,1.51,5,2.15,7.59H70C69.76,38.81,69.48,37.77,69.18,36.73Z"/><path class="cls-6" d="M13.61,21.72c-.28.71-.56,1.42-.83,2.13H10.12q.36-1.07.75-2.13Zm49.6,1.79c-.19-.6-.39-1.2-.59-1.79H60.18l.06.21c.19.64.37,1.28.56,1.92h2.52C63.29,23.74,63.25,23.62,63.21,23.51Z"/><path class="cls-6" d="M39.25,4.58h-5c.65,0,1.3,0,1.94-.08C37.24,4.51,38.25,4.53,39.25,4.58ZM55.83,8.3c-.78-.42-.8-.62-.48-1.46l.9-2.26H53.52c-.29.48-.59,1-.88,1.43a1.13,1.13,0,0,1-1.28.58c-.2,0-.41-.11-.61-.17a47.75,47.75,0,0,0-11.5-1.84h-5c-.54,0-1.09.06-1.63.13-1.9.23-3.81.47-5.68.86a54.24,54.24,0,0,0-6.17,1.6A10.92,10.92,0,0,0,17.3,9h5c.49-.16,1-.28,1.49-.39,2.17-.47,4.34-.93,6.52-1.24A41.57,41.57,0,0,1,41.49,7,96.43,96.43,0,0,1,51.62,9h5.29A7.51,7.51,0,0,0,55.83,8.3Z"/><path class="cls-6" d="M22.28,9a8.25,8.25,0,0,0-3,1.67A13.61,13.61,0,0,0,16.42,15c-.3.61-.57,1.23-.84,1.85H12.85c.18-.4.37-.8.56-1.21.62-1.26,1.15-2.56,1.73-3.84A7.79,7.79,0,0,1,17.3,9Zm37.13,3.79A8.72,8.72,0,0,0,56.91,9H51.65a7.52,7.52,0,0,1,5.45,4.69c.44,1.06.9,2.11,1.34,3.16h2.5Z"/><path class="cls-6" d="M32.54,65.08h-5a12.83,12.83,0,0,1-1.73-1.5,3.51,3.51,0,0,0-2.07-.9c-1.88-.34-3.78-.59-5.63-1.08A16.58,16.58,0,0,1,14.28,60H25.87a13.23,13.23,0,0,0,3.26,3.29A15.92,15.92,0,0,0,32.54,65.08ZM50,60c-.2.31-.4.62-.62.92a9.77,9.77,0,0,1-3.18,2.72,22.91,22.91,0,0,1-2.94,1.45h4.92a15.51,15.51,0,0,0,2.22-1.93,2.4,2.4,0,0,1,1.65-.81A26.8,26.8,0,0,0,56,61.67,25.14,25.14,0,0,0,61,60Z"/><path class="cls-6" d="M15.24,56.28h-4.4L10.49,56a12.61,12.61,0,0,1-1.93-1.86h3.82c.87.71,1.81,1.33,2.7,2Zm9.55-2.14H22a4.07,4.07,0,0,1,.87,1.57c.06.19.12.38.19.57h2.56C25.34,55.57,25.05,54.86,24.79,54.14Zm29.84,0c-.26.72-.54,1.43-.84,2.14H56.2l.68-1.61a3.73,3.73,0,0,1,.26-.53Zm12.91,0a14.78,14.78,0,0,1-2.64,2l-.32.19h4a18,18,0,0,0,2-2.14Z"/><path class="cls-6" d="M7.71,41.45c-.28,1.15-.56,2.3-.81,3.45A36.15,36.15,0,0,0,6.38,49c0,.12,0,.23,0,.35H3.77a30.48,30.48,0,0,1,.91-6.44c.09-.47.19-.94.29-1.41ZM17,44.84l4.27-3.39H17.46l-3.4,3a2,2,0,0,0-.78,1.78A12.12,12.12,0,0,0,14,49.3h2.58a14.41,14.41,0,0,1-.61-1.93A2.28,2.28,0,0,1,17,44.84Zm11.75-3a1.78,1.78,0,0,0-1.87,2,1.92,1.92,0,0,0,1.88,2,2.09,2.09,0,0,0,1.94-2A2,2,0,0,0,28.72,41.82ZM45,42.25a1.71,1.71,0,0,0-1.66,2A1.81,1.81,0,0,0,45.15,46a1.9,1.9,0,1,0-.2-3.79ZM59,44.53c-.92-1-1.72-2.06-2.49-3.08H54l.6.67a30.34,30.34,0,0,1,2.84,3.71,1.58,1.58,0,0,1,.2,1,13.73,13.73,0,0,1-.58,2.52h2.2c.16-.56.31-1.15.5-1.76A2.86,2.86,0,0,0,59,44.53Zm10-.25c-.2-.94-.41-1.89-.64-2.83H66c.36,1.55.66,3.12.87,4.71.13,1,.35,1.92.45,2.89a2,2,0,0,1,0,.25h2.31C69.47,47.62,69.36,45.93,69,44.28Z"/><path class="cls-6" d="M59,1.87,58,4.58H54.84A24.57,24.57,0,0,1,57,1.38C57.69.63,58.33,0,58.84.2S59.42.86,59,1.87Z"/></g><path class="cls-7" d="M45.16,64.93a22,22,0,0,1-4.49,2.41,14.29,14.29,0,0,1-6.78.75,23,23,0,0,1-4.5-.87,15.84,15.84,0,0,1-4.84-2.29h5a15.43,15.43,0,0,0,2.67.73,15.9,15.9,0,0,0,5.33,0,12.72,12.72,0,0,0,2.73-.77Z"/><path class="cls-7" d="M22.29,27.22H20.42c0-.3.06-.6.1-.91s0-.81.51-.9.89,1,.94,1.08S22.19,27,22.29,27.22ZM61.57,23.7H59.05c.26.91.53,1.82.82,2.73.08.26.17.53.26.79h2.53C62.31,26.05,61.94,24.87,61.57,23.7Zm-53.21,0c-.4,1.18-.79,2.35-1.18,3.52H9.75c.39-1.18.82-2.35,1.27-3.52Z"/><path class="cls-7" d="M60.86,21.57H58.42c-.5-1.65-1.12-3.26-1.78-4.85h2.5C59.73,18.33,60.31,20,60.86,21.57ZM11.05,16.72c-.72,1.59-1.35,3.21-1.94,4.85h2.74c.18-.47.37-.93.55-1.39.45-1.16.9-2.32,1.38-3.46Z"/><path class="cls-7" d="M19.8,59.84a2.55,2.55,0,0,0,.39,0,13.93,13.93,0,0,1-2-3.69h2.56c.23.52.49,1,.76,1.57a16.42,16.42,0,0,0,1.29,2.14Zm39.91-3.71a26.94,26.94,0,0,1-8.13,3.36,11.87,11.87,0,0,1-1.74.25c.18-.4.34-.92.42-1.11.35-.83.72-1.67,1.07-2.5H48.92A26.17,26.17,0,0,1,47,59.84H57.92c.29-.14.58-.29.86-.45,1.07-.6,2.11-1.26,3.16-1.92a13.49,13.49,0,0,0,1.77-1.34ZM16.92,59.32a18.58,18.58,0,0,1-6.55-3.19H6c1.15.91,2.32,1.8,3.53,2.62.57.39,1.15.75,1.75,1.09H19.8A11.32,11.32,0,0,1,16.92,59.32Zm24.33-2.53c-.23.24-.3.57-.61.89a17.52,17.52,0,0,0-4.58-1,19.87,19.87,0,0,0-6.45,1,5.86,5.86,0,0,0-.72-.84.89.89,0,0,0-1.48.67A2.15,2.15,0,0,0,29.9,59.6c.61-.18,1.23-.34,1.84-.51a11.78,11.78,0,0,1,8,.46,2.34,2.34,0,0,0,3.12-2.26A.94.94,0,0,0,41.25,56.79Z"/><path class="cls-7" d="M19.92,54H17.16a4.13,4.13,0,0,0-1.29-.92,6.82,6.82,0,0,1-3.67-3.92h2.58a2.31,2.31,0,0,0,.18.35,3.31,3.31,0,0,0,2.92,2,1.46,1.46,0,0,1,1.63,1.25C19.63,53.16,19.77,53.58,19.92,54Zm35.36-4.84a3.24,3.24,0,0,1-.21.48c-1,1.77-1.79,1.9-3.7,2.13a1.41,1.41,0,0,0-1.17,1c-.15.43-.29.86-.45,1.28h2.52a1.36,1.36,0,0,1,1-.67c3-.42,3.65-2.1,4.25-4.17Zm12.64.17,0-.17H65.6A3.94,3.94,0,0,1,65,51.07,12.31,12.31,0,0,1,62.66,54h3a24.79,24.79,0,0,0,1.73-2.48A3.4,3.4,0,0,0,67.92,49.32ZM6.13,52.71a5,5,0,0,1-1.54-3.56H2c0,.25,0,.51,0,.77a8.54,8.54,0,0,0,.42,1.85A6.76,6.76,0,0,0,3.68,54H7.51A11.89,11.89,0,0,1,6.13,52.71Zm30.93-2.48a3.14,3.14,0,0,0-1,.7c-.14.14-.39.26-.32.49a.92.92,0,0,0,.6.6A2.25,2.25,0,0,0,38,50.85.69.69,0,0,0,37.06,50.23Zm-3.17.7a4.62,4.62,0,0,0-.57-.82.62.62,0,0,0-.9,0,.48.48,0,0,0-.08.67c.19.32.39.64.6.95a.5.5,0,0,0,.43.21A.62.62,0,0,0,33.89,50.93Z"/><path class="cls-7" d="M54.77,41.3H52.23l-1.42-1.59h2.76ZM17.5,39.71,15.7,41.3h3.78l.94-.75a5.76,5.76,0,0,0,.87-.84Zm-13.95,0c-.12.53-.23,1.06-.34,1.59H6c.12-.53.26-1.06.39-1.59Zm62.68,0H63.89c.14.53.26,1.06.38,1.59h2.35Z"/><path class="cls-7" d="M9.75,27.22l-.17.5C8.7,30.47,8,33.28,7.28,36.08c-.32,1.21-.63,2.42-.94,3.63H3.56A108.41,108.41,0,0,1,6.73,28.54c.15-.44.3-.88.44-1.32ZM51.35,37c-.11-.13-.25-.23-.35-.37a6.73,6.73,0,0,0-4.89-2.45,38.93,38.93,0,0,0-7.78-.3c-1.95.17-3.89.48-5.84.65s-3.91.27-5.86.4a1.31,1.31,0,0,1-1.19-.63,6.11,6.11,0,0,1-.58-1c-.89-2-1.71-4-2.57-6H20.41a76.2,76.2,0,0,0-.16,8.68,2.81,2.81,0,0,1-1.31,2.58,4.87,4.87,0,0,0-.5.4l-.94.83h3.79a6.18,6.18,0,0,0,1.43-4.61l-.1-.9c.06-.73,1,1.4,1.16,1.75.68,1.8,2.12,1.89,3.68,1.65,2.73-.42,5.45-1,8.19-1.31a37,37,0,0,1,8.55,0c.89.09,1.78.23,2.66.33a3.61,3.61,0,0,1,2.33,1.24l1.63,1.83h2.75C52.88,38.8,52.16,37.88,51.35,37Zm14-.37q-1.32-4.69-2.72-9.36H60.13c.54,1.64,1.14,3.25,1.62,4.9.75,2.52,1.51,5,2.15,7.59h2.33C66,38.66,65.68,37.62,65.38,36.58Z"/><path class="cls-7" d="M11.85,21.57c-.28.71-.56,1.42-.83,2.13H8.36q.36-1.07.75-2.13Zm49.6,1.79c-.19-.6-.39-1.2-.59-1.79H58.42l.06.21c.19.64.38,1.28.56,1.92h2.52C61.53,23.59,61.49,23.47,61.45,23.36Z"/><path class="cls-7" d="M37.47,4.43h-5c.65,0,1.3,0,1.94-.08C35.45,4.36,36.46,4.38,37.47,4.43ZM54,8.15c-.78-.42-.8-.62-.48-1.46l.9-2.26H51.73c-.29.48-.59,1-.88,1.43a1.13,1.13,0,0,1-1.28.58c-.2,0-.4-.11-.61-.17A47.75,47.75,0,0,0,37.47,4.43h-5c-.54,0-1.09.06-1.63.13-1.9.23-3.81.47-5.68.86A56.38,56.38,0,0,0,19,7a11.14,11.14,0,0,0-3.51,1.86h5A14.14,14.14,0,0,1,22,8.48c2.16-.47,4.33-.93,6.51-1.24a41.59,41.59,0,0,1,11.2-.36,96.43,96.43,0,0,1,10.13,2h5.29A6.76,6.76,0,0,0,54,8.15Z"/><path class="cls-7" d="M20.5,8.87a8.21,8.21,0,0,0-3,1.67,13.61,13.61,0,0,0-2.88,4.33c-.3.61-.57,1.23-.84,1.85H11.06c.18-.4.37-.8.56-1.21.62-1.26,1.15-2.56,1.73-3.84a7.71,7.71,0,0,1,2.16-2.8Zm37.12,3.79a8.72,8.72,0,0,0-2.5-3.79H49.86a7.5,7.5,0,0,1,5.45,4.69c.44,1.06.9,2.11,1.34,3.16h2.5Z"/><path class="cls-7" d="M29.53,64.93h-5a12.24,12.24,0,0,1-1.73-1.5,3.57,3.57,0,0,0-2.07-.9c-1.89-.35-3.79-.59-5.64-1.08a16.33,16.33,0,0,1-3.86-1.61H22.85a13.23,13.23,0,0,0,3.26,3.29A15.76,15.76,0,0,0,29.53,64.93ZM47,59.84c-.19.31-.4.61-.62.91a9.65,9.65,0,0,1-3.17,2.73,23.71,23.71,0,0,1-3,1.45h4.92A15.51,15.51,0,0,0,47.39,63a2.46,2.46,0,0,1,1.66-.82,25.92,25.92,0,0,0,3.89-.66,25,25,0,0,0,5-1.68Z"/><path class="cls-7" d="M10.4,56.16H6l-.34-.28A12.22,12.22,0,0,1,3.71,54H7.54c.87.71,1.8,1.33,2.69,2ZM20,54H17.19a4,4,0,0,1,.88,1.57c.05.19.12.38.19.57h2.55C20.5,55.46,20.21,54.75,20,54Zm29.83,0c-.26.72-.53,1.44-.84,2.14h2.42c.23-.54.46-1.07.68-1.61A2.9,2.9,0,0,1,52.3,54Zm12.91,0A13.67,13.67,0,0,1,60.05,56l-.31.19h4a17.32,17.32,0,0,0,2-2.14Z"/><path class="cls-7" d="M6,41.3c-.29,1.15-.56,2.3-.82,3.45a36.14,36.14,0,0,0-.51,4,2,2,0,0,0,0,.35H2a29.86,29.86,0,0,1,.92-6.44c.09-.47.19-.94.29-1.41Zm9.25,3.39,4.28-3.39H15.7l-3.4,3a1.94,1.94,0,0,0-.78,1.78,12.12,12.12,0,0,0,.68,3.09h2.58a14.41,14.41,0,0,1-.61-1.93A2.29,2.29,0,0,1,15.2,44.69Zm11.75-3a1.78,1.78,0,0,0-1.86,2,1.92,1.92,0,0,0,1.88,2,2.08,2.08,0,0,0,1.93-2A2,2,0,0,0,27,41.67Zm16.23.43a1.71,1.71,0,0,0-1.65,2,1.8,1.8,0,0,0,1.86,1.8,1.9,1.9,0,1,0-.21-3.79Zm14.07,2.28c-.91-1-1.71-2.06-2.48-3.08H52.23l.59.67a30.56,30.56,0,0,1,2.85,3.71,1.5,1.5,0,0,1,.19,1,12.27,12.27,0,0,1-.58,2.52h2.2c.16-.56.32-1.15.5-1.76A2.82,2.82,0,0,0,57.25,44.38Zm10-.25c-.19-1-.4-1.89-.63-2.83H64.27c.36,1.55.66,3.12.87,4.71.13,1,.34,1.92.45,2.89a2,2,0,0,1,0,.25h2.3C67.71,47.47,67.6,45.78,67.25,44.13Z"/><path d="M55.75,1.72c-.35.91-.71,1.81-1.07,2.71H51.55a24.52,24.52,0,0,1,2.19-3.2C54.4.48,55.05-.18,55.56,0S56.14.71,55.75,1.72Z"/><text class="cls-8" transform="translate(167.04 46.45)">W<tspan class="cls-9" x="49.31" y="0">I</tspan><tspan class="cls-10" x="69.79" y="0">LL</tspan><tspan class="cls-11" x="122.4" y="0">I</tspan><tspan class="cls-12" x="142.42" y="0">A</tspan><tspan class="cls-13" x="179.59" y="0">M</tspan><tspan class="cls-14" x="224.44" y="0">S</tspan></text></g></g></svg>