<svg xmlns="http://www.w3.org/2000/svg" viewBox="0 0 61.49 63.16"><g id="Layer_2" data-name="Layer 2"><g id="Layer_2_Image" data-name="Layer 2 Image"><path d="M30.67,3.61A47.65,47.65,0,0,1,44,5.39c.19.06.39.08.58.14a.8.8,0,0,0,1.06-.45c.84-1.35,1.74-2.67,2.63-4A8.47,8.47,0,0,1,48.8.33a.67.67,0,0,1,.94-.21.67.67,0,0,1,.2.86c-.31.82-.63,1.64-1,2.45s-.66,1.63-1,2.44c-.17.41-.18.81.26,1,2.3,1.21,3.28,3.37,4.1,5.65.73,2,1.45,4,2.2,6.07,1.79,4.86,3.1,9.88,4.55,14.84a61.73,61.73,0,0,1,1.75,7.19,43.74,43.74,0,0,1,.64,5,3.32,3.32,0,0,1-.42,1.83A16.79,16.79,0,0,1,56,53.18c-1,.68-2,1.23-3.08,1.81a24.28,24.28,0,0,1-5.49,2,10.62,10.62,0,0,1-3.17.51,2.43,2.43,0,0,0-1.89.85A14.5,14.5,0,0,1,38,61.51a25.79,25.79,0,0,1-4.26,1.54,8.89,8.89,0,0,1-2.36.07,17.54,17.54,0,0,1-10.95-3.46,6.29,6.29,0,0,1-1-.88,2.71,2.71,0,0,0-1.89-.88,39.16,39.16,0,0,1-5.39-1,13.86,13.86,0,0,1-3.69-1.65,24.57,24.57,0,0,1-6.83-5.33A6.7,6.7,0,0,1,0,45.63,16.92,16.92,0,0,1,.31,42.3C1.1,38.24,2,34.19,3.19,30.22A125.48,125.48,0,0,1,8,16.24c.79-1.83,1.57-3.66,2.39-5.47a8.89,8.89,0,0,1,5.21-4.65A44.76,44.76,0,0,1,23,4.31,42.14,42.14,0,0,1,30.67,3.61ZM16.82,55.17a11.94,11.94,0,0,1-1.89-3.88A3.31,3.31,0,0,0,13,49.06,6.19,6.19,0,0,1,9.42,45c-.16-.54-.25-1.09-.41-1.62a2.34,2.34,0,0,1,.92-2.71c2.1-1.77,4.12-3.64,6.21-5.41a2.28,2.28,0,0,0,.88-2,67.14,67.14,0,0,1,.26-9.08c0-.39,0-.89.51-1s.56.47.68.82a55.54,55.54,0,0,0,2.84,6.58,7.71,7.71,0,0,0,.55.92,1.15,1.15,0,0,0,1,.55,34.27,34.27,0,0,0,4.53-.21A64.28,64.28,0,0,1,35,31.06a43.58,43.58,0,0,1,5.24.26,7.64,7.64,0,0,1,6,2.93,46.72,46.72,0,0,0,3.22,3.69c1.08,1.12,2,2.37,3,3.53A1.7,1.7,0,0,1,53,42.88a7.8,7.8,0,0,1-5.13,6.38,1.88,1.88,0,0,0-1.24,1.15A30.69,30.69,0,0,1,45.1,54c-.15.28-.3.59-.08.9a.85.85,0,0,0,1,.24c.81-.2,1.62-.41,2.42-.65A28.37,28.37,0,0,0,55,51.25a10.39,10.39,0,0,0,2.81-2.56,5.8,5.8,0,0,0,1.44-4.86c-.59-3-1.08-5.95-1.9-8.87s-1.52-5.85-2.6-8.69a13.79,13.79,0,0,1-.69-2.15c-.32-1.48-.93-2.87-1.33-4.33a37.69,37.69,0,0,0-1.84-4.91,20.91,20.91,0,0,0-2.58-5.1,4.36,4.36,0,0,0-1.56-1.27,18.78,18.78,0,0,0-2.94-1A49.23,49.23,0,0,0,32.1,5.67,32.58,32.58,0,0,0,27,5.9a79.32,79.32,0,0,0-8.92,1.59,7.55,7.55,0,0,0-4.71,3,20.69,20.69,0,0,0-2.15,4c-.85,2.19-1.71,4.37-2.6,6.55a38.37,38.37,0,0,0-1.67,4.72c-.66,2.5-1.47,4.95-2.08,7.46-.49,2-1,4-1.54,6a26.62,26.62,0,0,0-.95,5.89,5,5,0,0,0,1.42,3.56,25.15,25.15,0,0,0,4,3.22,17.67,17.67,0,0,0,5.94,3A5.21,5.21,0,0,0,16.82,55.17Zm2.6-23.65a.74.74,0,0,0-.19.72c.11.58.21,1.17.31,1.76.17,1,0,1.89-1.08,2.33a3.16,3.16,0,0,0-.68.49C16,38.2,14.33,39.65,12.56,41a2.66,2.66,0,0,0-1.14,3c.51,2.23,1.59,3.33,3.8,3.59a1,1,0,0,1,.94.77c.27.75.5,1.52.8,2.26a18.16,18.16,0,0,0,4.26,6.82,13.93,13.93,0,0,0,8.51,3.58,13.46,13.46,0,0,0,6.84-1.26,11.91,11.91,0,0,0,5.52-4.55A33.17,33.17,0,0,0,45,48.75a1.1,1.1,0,0,1,1.06-.88,5.72,5.72,0,0,0,5-4.31.8.8,0,0,0-.28-.92c-.77-.8-1.44-1.69-2.17-2.53L44.1,34.89a3.43,3.43,0,0,0-2.27-1.21c-.75-.08-1.5-.21-2.25-.29a33.53,33.53,0,0,0-9.85.19c-2.07.37-4.15.69-6.23,1a6.86,6.86,0,0,1-1.2,0,1.6,1.6,0,0,1-1.54-.91C20.37,33,19.9,32.3,19.42,31.52Z"/><path d="M36.05,55.32a2.49,2.49,0,0,1-.95-.3,10.52,10.52,0,0,0-7.1-.43c-.69.19-1.38.37-2.06.59a1.23,1.23,0,0,1-1.48-.43,3.18,3.18,0,0,1-.73-1.22.91.91,0,0,1,.4-1,.72.72,0,0,1,1.05.23c.41.74.92.62,1.59.42a13.83,13.83,0,0,1,8.3-.16,1.16,1.16,0,0,0,1.3-.19c.42-.39.89-.72,1.47-.32.4.28.38.92-.1,1.61S37,55.35,36.05,55.32Z"/><path d="M23.29,38.48a1.67,1.67,0,0,1,1.76,1.69,1.87,1.87,0,0,1-1.86,1.92,1.81,1.81,0,0,1-1.66-1.83A1.61,1.61,0,0,1,23.29,38.48Z"/><path d="M38.53,38.85a1.74,1.74,0,0,1,1.83,1.77,1.69,1.69,0,0,1-1.73,1.72A1.59,1.59,0,0,1,37,40.9C37,39.53,37.46,38.86,38.53,38.85Z"/><path d="M33.6,47c0,.39-1.17,1.2-1.53,1.09a.84.84,0,0,1-.57-.56c-.06-.21.17-.32.31-.45a2.75,2.75,0,0,1,1-.66A.65.65,0,0,1,33.6,47Z"/><path d="M29.31,48a.46.46,0,0,1-.4-.2c-.2-.29-.39-.58-.56-.88a.45.45,0,0,1,.08-.63.57.57,0,0,1,.84,0,4.2,4.2,0,0,1,.53.77A.58.58,0,0,1,29.31,48Z"/></g></g></svg>